<svg xmlns="http://www.w3.org/2000/svg" xmlns:xlink="http://www.w3.org/1999/xlink" width="345px" height="87px" viewBox="0 0 345 87"><title>10</title><g id="Page-1" stroke="none" stroke-width="1" fill="none" fill-rule="evenodd"><g id="1" transform="translate(-23.000000, -11.000000)"><g id="10" transform="translate(23.000000, 11.592285)"><g id="Group-5" transform="translate(0.000000, 2.407715)"><polygon id="Fill-1" fill="#061E5C" points="0 37.1898776 0 53 45 15.8101224 45 0"></polygon><polygon id="Fill-2" fill="#061E5C" points="0 68.1903409 0 84 45 46.8101224 45 31"></polygon><polygon id="Fill-3" fill="#FFB41D" points="20 37.1898776 20 53 65 15.8101224 65 0"></polygon><polygon id="Fill-4" fill="#FFB41D" points="20 68.1903409 20 84 65 46.8101224 65 31"></polygon></g><path d="M117.406738,56.3232422 C120.092285,56.3232422 122.82666,56.0668945 125.609863,55.5541992 C128.393066,55.0415039 131.261719,54.2724609 134.21582,53.2470703 L134.21582,53.2470703 L134.21582,35.7421875 L135.387695,34.7167969 L139.745605,34.3505859 L139.745605,30.6518555 L117.846191,30.6518555 L117.846191,34.3505859 L123.412598,34.7167969 L124.584473,35.7421875 L124.584473,51.0498047 C123.656738,51.1230469 122.838867,51.1779785 122.130859,51.2145996 C121.422852,51.2512207 120.873535,51.2695312 120.48291,51.2695312 C114.647949,51.2695312 110.088623,49.3835449 106.804932,45.6115723 C103.52124,41.8395996 101.879395,36.6088867 101.879395,29.9194336 C101.879395,23.4008789 103.484619,18.2800293 106.695068,14.5568848 C109.905518,10.8337402 114.318359,8.97216797 119.933594,8.97216797 C121.056641,8.97216797 122.130859,9.06982422 123.15625,9.26513672 C124.181641,9.46044922 125.182617,9.765625 126.15918,10.1806641 L126.15918,10.1806641 L127.294434,11.5356445 L128.722656,19.4824219 L134.21582,19.4824219 L134.21582,6.73828125 C131.432617,5.90820312 128.716553,5.28564453 126.067627,4.87060547 C123.418701,4.45556641 120.849121,4.24804688 118.358887,4.24804688 C110.106934,4.24804688 103.484619,6.58569336 98.4919434,11.2609863 C93.4992676,15.9362793 91.0029297,22.1557617 91.0029297,29.9194336 C91.0029297,37.7563477 93.4443359,44.1162109 98.3271484,48.9990234 C103.209961,53.8818359 109.569824,56.3232422 117.406738,56.3232422 Z M160.353516,55.9936523 C166.212891,55.9936523 170.912598,54.284668 174.452637,50.8666992 C177.992676,47.4487305 179.762695,42.9321289 179.762695,37.3168945 C179.762695,31.3842773 178.065918,26.6784668 174.672363,23.1994629 C171.278809,19.720459 166.701172,17.980957 160.939453,17.980957 C155.080078,17.980957 150.380371,19.732666 146.840332,23.236084 C143.300293,26.739502 141.530273,31.3842773 141.530273,37.1704102 C141.530273,42.8100586 143.257568,47.3571777 146.712158,50.8117676 C150.166748,54.2663574 154.713867,55.9936523 160.353516,55.9936523 Z M160.573242,52.0385742 C157.863281,52.0385742 155.745361,50.7080078 154.219482,48.046875 C152.693604,45.3857422 151.930664,41.6625977 151.930664,36.8774414 C151.930664,32.1655273 152.699707,28.503418 154.237793,25.8911133 C155.775879,23.2788086 157.912109,21.9726562 160.646484,21.9726562 C163.405273,21.9726562 165.559814,23.3032227 167.110107,25.9643555 C168.6604,28.6254883 169.435547,32.3364258 169.435547,37.097168 C169.435547,41.8823242 168.666504,45.5688477 167.128418,48.1567383 C165.590332,50.7446289 163.405273,52.0385742 160.573242,52.0385742 Z M195.976074,55.4077148 C198.930176,55.4077148 201.450928,55.267334 203.53833,54.9865723 C205.625732,54.7058105 207.353027,54.2724609 208.720215,53.6865234 C212.577637,51.953125 215.513428,49.5056152 217.527588,46.3439941 C219.541748,43.182373 220.548828,39.4287109 220.548828,35.0830078 C220.548828,30.078125 219.169434,25.9887695 216.410645,22.8149414 C213.651855,19.6411133 210.111816,18.0541992 205.790527,18.0541992 C204.154785,18.0541992 202.445801,18.3288574 200.663574,18.8781738 C198.881348,19.4274902 196.964844,20.2758789 194.914062,21.4233398 L194.914062,21.4233398 L194.914062,0 L191.325195,0 L180.192383,3.515625 L180.192383,6.4453125 L185.612305,6.4453125 L185.612305,55.2612305 L193.925293,55.4077148 L195.976074,55.4077148 Z M197.294434,51.4160156 C196.659668,51.4160156 196.171387,51.4099121 195.82959,51.3977051 C195.487793,51.385498 195.182617,51.3671875 194.914062,51.3427734 L194.914062,51.3427734 L194.914062,24.4995117 C195.890625,24.3041992 196.763428,24.1577148 197.532471,24.0600586 C198.301514,23.9624023 199.003418,23.9135742 199.638184,23.9135742 C203.129395,23.9135742 205.814941,25.0427246 207.694824,27.3010254 C209.574707,29.5593262 210.514648,32.800293 210.514648,37.0239258 C210.514648,41.9555664 209.446533,45.5871582 207.310303,47.9187012 C205.174072,50.2502441 201.835449,51.4160156 197.294434,51.4160156 Z M241.925781,55.9936523 C247.785156,55.9936523 252.484863,54.284668 256.024902,50.8666992 C259.564941,47.4487305 261.334961,42.9321289 261.334961,37.3168945 C261.334961,31.3842773 259.638184,26.6784668 256.244629,23.1994629 C252.851074,19.720459 248.273438,17.980957 242.511719,17.980957 C236.652344,17.980957 231.952637,19.732666 228.412598,23.236084 C224.872559,26.739502 223.102539,31.3842773 223.102539,37.1704102 C223.102539,42.8100586 224.829834,47.3571777 228.284424,50.8117676 C231.739014,54.2663574 236.286133,55.9936523 241.925781,55.9936523 Z M242.145508,52.0385742 C239.435547,52.0385742 237.317627,50.7080078 235.791748,48.046875 C234.265869,45.3857422 233.50293,41.6625977 233.50293,36.8774414 C233.50293,32.1655273 234.271973,28.503418 235.810059,25.8911133 C237.348145,23.2788086 239.484375,21.9726562 242.21875,21.9726562 C244.977539,21.9726562 247.13208,23.3032227 248.682373,25.9643555 C250.232666,28.6254883 251.007812,32.3364258 251.007812,37.097168 C251.007812,41.8823242 250.23877,45.5688477 248.700684,48.1567383 C247.162598,50.7446289 244.977539,52.0385742 242.145508,52.0385742 Z M281.942871,55.4077148 L281.942871,52.0385742 L278.646973,51.7456055 L277.621582,50.6103516 L277.621582,25.8544922 C279.086426,25.4394531 280.410889,25.1220703 281.594971,24.9023438 C282.779053,24.6826172 283.822754,24.5727539 284.726074,24.5727539 C287.069824,24.5727539 288.778809,25.2258301 289.853027,26.5319824 C290.927246,27.8381348 291.464355,29.8828125 291.464355,32.6660156 L291.464355,32.6660156 L291.464355,50.6103516 L290.438965,51.7456055 L287.216309,52.0385742 L287.216309,55.4077148 L305.563477,55.4077148 L305.563477,52.0385742 L301.608398,51.7456055 L300.619629,50.6103516 L300.619629,30.5053711 C300.619629,26.3061523 299.777344,23.1811523 298.092773,21.1303711 C296.408203,19.0795898 293.856934,18.0541992 290.438965,18.0541992 C288.900879,18.0541992 287.094238,18.4204102 285.019043,19.152832 C282.943848,19.8852539 280.478027,21.0449219 277.621582,22.6318359 L277.621582,22.6318359 L277.621582,18.2006836 L273.996094,18.2006836 L263.192871,21.7163086 L263.192871,24.7192383 L268.319824,24.7192383 L268.319824,50.6103516 L267.257812,51.7456055 L263.412598,52.0385742 L263.412598,55.4077148 L281.942871,55.4077148 Z M316.796387,56.0668945 C318.700684,56.0668945 320.69043,55.6762695 322.765625,54.8950195 C324.84082,54.1137695 327.147949,52.8564453 329.687012,51.1230469 L329.687012,51.1230469 L330.675781,55.4077148 L344.04248,55.4077148 L344.04248,52.1118164 L340.050781,51.7456055 L339.062012,50.6835938 L339.062012,31.2744141 C339.062012,26.3671875 338.012207,22.9248047 335.912598,20.9472656 C333.812988,18.9697266 330.1875,17.980957 325.036133,17.980957 C320.446289,17.980957 316.57666,18.8476562 313.427246,20.5810547 C310.277832,22.3144531 308.703125,24.3530273 308.703125,26.6967773 C308.703125,27.6489258 308.977783,28.3447266 309.5271,28.7841797 C310.076416,29.2236328 310.949219,29.4433594 312.145508,29.4433594 L312.145508,29.4433594 L319.066895,29.4433594 L319.066895,22.4121094 C319.750488,22.265625 320.385254,22.1557617 320.971191,22.0825195 C321.557129,22.0092773 322.118652,21.9726562 322.655762,21.9726562 C325.121582,21.9726562 326.928223,22.5952148 328.075684,23.840332 C329.223145,25.0854492 329.796875,27.0629883 329.796875,29.7729492 L329.796875,29.7729492 L329.796875,32.0068359 C319.958008,34.2285156 313.695801,36.2915039 311.010254,38.1958008 C308.324707,40.1000977 306.981934,42.8100586 306.981934,46.3256836 C306.981934,49.1821289 307.897461,51.5197754 309.728516,53.338623 C311.55957,55.1574707 313.915527,56.0668945 316.796387,56.0668945 Z M322.436035,50.3173828 C320.727051,50.3173828 319.37207,49.810791 318.371094,48.7976074 C317.370117,47.7844238 316.869629,46.4111328 316.869629,44.6777344 C316.869629,42.4560547 317.772949,40.6982422 319.57959,39.4042969 C321.38623,38.1103516 324.755371,36.9140625 329.687012,35.8154297 L329.687012,35.8154297 L329.687012,48.046875 C328.222168,48.8037109 326.885498,49.3713379 325.677002,49.7497559 C324.468506,50.1281738 323.388184,50.3173828 322.436035,50.3173828 Z" id="Gobona" fill="#30343E" fill-rule="nonzero"></path><path d="M99.859375,82.4077148 L99.859375,81.5463867 L98.434082,81.4438477 L98.0957031,81.1464844 L98.0957031,76.4194336 L102.463867,69.4262695 L103.745605,69.159668 L103.745605,68.3188477 L99.4594727,68.3188477 L99.4594727,69.159668 L100.741211,69.3852539 L100.936035,69.6826172 L97.4086914,75.2915039 L94.1889648,69.5185547 L94.4042969,69.2827148 L95.6040039,69.159668 L95.6040039,68.3188477 L90.7231445,68.3188477 L90.7231445,69.159668 L92.0048828,69.3647461 L96.1884766,76.6962891 L96.1884766,81.1464844 L95.8500977,81.4438477 L94.4248047,81.5463867 L94.4248047,82.4077148 L99.859375,82.4077148 Z M106.244824,82.5922852 C107.666699,82.5922852 108.837354,82.1018066 109.756787,81.1208496 C110.676221,80.1398926 111.135937,78.8803711 111.135937,77.3422852 C111.135937,75.8041992 110.67793,74.5446777 109.761914,73.5637207 C108.845898,72.5827637 107.673535,72.0922852 106.244824,72.0922852 C104.809277,72.0922852 103.638623,72.5810547 102.732861,73.5585938 C101.8271,74.5361328 101.374219,75.7973633 101.374219,77.3422852 C101.374219,78.887207 101.830518,80.1484375 102.743115,81.1259766 C103.655713,82.1035156 104.822949,82.5922852 106.244824,82.5922852 Z M106.244824,81.6899414 C105.37666,81.6899414 104.675977,81.295166 104.142773,80.5056152 C103.60957,79.7160645 103.342969,78.6616211 103.342969,77.3422852 C103.342969,76.0229492 103.607861,74.9685059 104.137646,74.1789551 C104.667432,73.3894043 105.369824,72.9946289 106.244824,72.9946289 C107.119824,72.9946289 107.825635,73.3911133 108.362256,74.184082 C108.898877,74.9770508 109.167187,76.0297852 109.167187,77.3422852 C109.167187,78.668457 108.900586,79.7246094 108.367383,80.5107422 C107.83418,81.296875 107.12666,81.6899414 106.244824,81.6899414 Z M116.065332,82.612793 C116.564355,82.612793 117.092432,82.5 117.649561,82.2744141 C118.206689,82.0488281 118.813379,81.7001953 119.469629,81.2285156 L119.469629,81.2285156 L119.469629,82.4077148 L122.576562,82.4077148 L122.576562,81.6489258 L121.592187,81.5463867 L121.212793,81.2080078 L121.212793,72.0922852 L120.412988,72.0922852 L117.972559,72.871582 L117.972559,73.527832 L119.469629,73.527832 L119.469629,80.644043 C119.032129,80.855957 118.613428,81.0131836 118.213525,81.1157227 C117.813623,81.2182617 117.418848,81.2695312 117.029199,81.2695312 C116.331934,81.2695312 115.819238,81.0900879 115.491113,80.7312012 C115.162988,80.3723145 114.998926,79.8100586 114.998926,79.0444336 L114.998926,79.0444336 L114.998926,72.0922852 L114.199121,72.0922852 L111.758691,72.871582 L111.758691,73.527832 L113.255762,73.527832 L113.255762,79.4033203 C113.255762,80.4423828 113.496729,81.2370605 113.978662,81.7873535 C114.460596,82.3376465 115.156152,82.612793 116.065332,82.612793 Z M128.151953,82.4077148 L128.151953,81.6489258 L126.685645,81.5463867 L126.326758,81.2080078 L126.326758,75.2094727 C126.771094,74.6831055 127.179541,74.295166 127.5521,74.0456543 C127.924658,73.7961426 128.278418,73.6713867 128.613379,73.6713867 C128.832129,73.6713867 129.03208,73.7141113 129.213232,73.7995605 C129.394385,73.8850098 129.55332,74.0097656 129.690039,74.1738281 L129.690039,74.1738281 L130.356543,74.1738281 L130.356543,72.3691406 C130.137793,72.2734375 129.925879,72.2033691 129.720801,72.1589355 C129.515723,72.114502 129.307227,72.0922852 129.095313,72.0922852 C128.951758,72.0922852 128.844092,72.0957031 128.772314,72.1025391 C128.700537,72.109375 128.633887,72.1230469 128.572363,72.1435547 C128.162207,72.4716797 127.77085,72.8049316 127.398291,73.1433105 C127.025732,73.4816895 126.668555,73.8251953 126.326758,74.1738281 L126.326758,74.1738281 L126.326758,72.2050781 L125.526953,72.2050781 L123.086523,72.9536133 L123.086523,73.6098633 L124.563086,73.6098633 L124.563086,81.2080078 L124.204199,81.5463867 L123.086523,81.6489258 L123.086523,82.4077148 L128.151953,82.4077148 Z M143.927246,82.4077148 L143.927246,81.5463867 L142.512207,81.4438477 L142.163574,81.1464844 L142.163574,69.2827148 L145.373047,69.2827148 L145.67041,69.6005859 L145.95752,71.5488281 L147.116211,71.5488281 L147.116211,68.3188477 L135.252441,68.3188477 L135.252441,71.5488281 L136.400879,71.5488281 L136.698242,69.6005859 L136.995605,69.2827148 L140.205078,69.2827148 L140.205078,81.1464844 L139.846191,81.4438477 L138.441406,81.5463867 L138.441406,82.4077148 L143.927246,82.4077148 Z M150.917676,82.4077148 L150.917676,81.6489258 L149.451367,81.5463867 L149.09248,81.2080078 L149.09248,75.2094727 C149.536816,74.6831055 149.945264,74.295166 150.317822,74.0456543 C150.690381,73.7961426 151.044141,73.6713867 151.379102,73.6713867 C151.597852,73.6713867 151.797803,73.7141113 151.978955,73.7995605 C152.160107,73.8850098 152.319043,74.0097656 152.455762,74.1738281 L152.455762,74.1738281 L153.122266,74.1738281 L153.122266,72.3691406 C152.903516,72.2734375 152.691602,72.2033691 152.486523,72.1589355 C152.281445,72.114502 152.072949,72.0922852 151.861035,72.0922852 C151.71748,72.0922852 151.609814,72.0957031 151.538037,72.1025391 C151.46626,72.109375 151.399609,72.1230469 151.338086,72.1435547 C150.92793,72.4716797 150.536572,72.8049316 150.164014,73.1433105 C149.791455,73.4816895 149.434277,73.8251953 149.09248,74.1738281 L149.09248,74.1738281 L149.09248,72.2050781 L148.292676,72.2050781 L145.852246,72.9536133 L145.852246,73.6098633 L147.328809,73.6098633 L147.328809,81.2080078 L146.969922,81.5463867 L145.852246,81.6489258 L145.852246,82.4077148 L150.917676,82.4077148 Z M157.39541,82.612793 C157.894434,82.612793 158.42251,82.5 158.979639,82.2744141 C159.536768,82.0488281 160.143457,81.7001953 160.799707,81.2285156 L160.799707,81.2285156 L160.799707,82.4077148 L163.906641,82.4077148 L163.906641,81.6489258 L162.922266,81.5463867 L162.542871,81.2080078 L162.542871,72.0922852 L161.743066,72.0922852 L159.302637,72.871582 L159.302637,73.527832 L160.799707,73.527832 L160.799707,80.644043 C160.362207,80.855957 159.943506,81.0131836 159.543604,81.1157227 C159.143701,81.2182617 158.748926,81.2695312 158.359277,81.2695312 C157.662012,81.2695312 157.149316,81.0900879 156.821191,80.7312012 C156.493066,80.3723145 156.329004,79.8100586 156.329004,79.0444336 L156.329004,79.0444336 L156.329004,72.0922852 L155.529199,72.0922852 L153.08877,72.871582 L153.08877,73.527832 L154.58584,73.527832 L154.58584,79.4033203 C154.58584,80.4423828 154.826807,81.2370605 155.30874,81.7873535 C155.790674,82.3376465 156.48623,82.612793 157.39541,82.612793 Z M167.400488,82.5922852 C168.630957,82.5922852 169.593115,82.3137207 170.286963,81.7565918 C170.980811,81.1994629 171.327734,80.4287109 171.327734,79.4443359 C171.327734,79.0683594 171.259375,78.7248535 171.122656,78.4138184 C170.985937,78.1027832 170.787695,77.8447266 170.52793,77.6396484 C170.172461,77.3457031 169.598242,77.0175781 168.805273,76.6552734 C168.579687,76.5527344 168.412207,76.4741211 168.302832,76.4194336 C167.605566,76.0844727 167.133887,75.7802734 166.887793,75.5068359 C166.641699,75.2333984 166.518652,74.9018555 166.518652,74.512207 C166.518652,74.0336914 166.672461,73.6611328 166.980078,73.3945312 C167.287695,73.1279297 167.714941,72.9946289 168.261816,72.9946289 C168.514746,72.9946289 168.767676,73.0322266 169.020605,73.1074219 C169.273535,73.1826172 169.540137,73.2954102 169.82041,73.4458008 L169.82041,73.4458008 L169.984473,74.9326172 L171.020117,74.9326172 L171.020117,72.5537109 C170.664648,72.4033203 170.283545,72.2888184 169.876807,72.2102051 C169.470068,72.1315918 169.030859,72.0922852 168.55918,72.0922852 C167.376562,72.0922852 166.460547,72.3486328 165.811133,72.8613281 C165.161719,73.3740234 164.837012,74.0986328 164.837012,75.0351562 C164.837012,75.6503906 165.026709,76.1665039 165.406104,76.5834961 C165.785498,77.0004883 166.501562,77.4448242 167.554297,77.9165039 C168.483984,78.340332 169.071875,78.6906738 169.317969,78.9675293 C169.564062,79.2443848 169.687109,79.5947266 169.687109,80.0185547 C169.687109,80.5244141 169.507666,80.9328613 169.148779,81.2438965 C168.789893,81.5549316 168.313086,81.7104492 167.718359,81.7104492 C167.417578,81.7104492 167.118506,81.6694336 166.821143,81.5874023 C166.523779,81.5053711 166.228125,81.3789062 165.93418,81.2080078 L165.93418,81.2080078 L165.677832,79.4238281 L164.672949,79.4238281 L164.672949,82.1513672 C165.062598,82.3017578 165.488135,82.4128418 165.949561,82.4846191 C166.410986,82.5563965 166.894629,82.5922852 167.400488,82.5922852 Z M175.518848,82.4692383 C175.949512,82.4692383 176.397266,82.4299316 176.862109,82.3513184 C177.326953,82.2727051 177.798633,82.1582031 178.277148,82.0078125 L178.277148,82.0078125 L178.277148,81.2285156 C178.017383,81.2900391 177.766162,81.3344727 177.523486,81.3618164 C177.280811,81.3891602 177.04668,81.402832 176.821094,81.402832 C176.164844,81.402832 175.710254,81.2473145 175.457324,80.9362793 C175.204395,80.6252441 175.07793,80.0151367 175.07793,79.105957 L175.07793,79.105957 L175.07793,73.5688477 L178.277148,73.5688477 L178.277148,72.5844727 L175.07793,72.5844727 L175.07793,70.3491211 L174.298633,70.3491211 L173.396289,72.3076172 L172.012012,72.9125977 L172.012012,73.5688477 L173.334766,73.5688477 L173.334766,80.3466797 C173.334766,81.1533203 173.497119,81.7087402 173.821826,82.0129395 C174.146533,82.3171387 174.712207,82.4692383 175.518848,82.4692383 Z M183.257812,82.5922852 C183.93457,82.5922852 184.60791,82.4863281 185.277832,82.2744141 C185.947754,82.0625 186.59375,81.7514648 187.21582,81.3413086 L187.21582,81.3413086 L187.21582,80.1826172 C186.586914,80.5996094 186.00415,80.9072266 185.467529,81.1054688 C184.930908,81.3037109 184.413086,81.402832 183.914062,81.402832 C182.833984,81.402832 181.976074,81.0183105 181.340332,80.2492676 C180.70459,79.4802246 180.386719,78.4360352 180.386719,77.1166992 L180.386719,77.1166992 L180.386719,76.8808594 L187.185059,76.8808594 C187.19873,76.7988281 187.207275,76.7133789 187.210693,76.6245117 C187.214111,76.5356445 187.21582,76.4057617 187.21582,76.2348633 C187.21582,74.956543 186.875732,73.9465332 186.195557,73.204834 C185.515381,72.4631348 184.594238,72.0922852 183.432129,72.0922852 C182.010254,72.0922852 180.846436,72.5895996 179.940674,73.5842285 C179.034912,74.5788574 178.582031,75.8623047 178.582031,77.4345703 C178.582031,78.9658203 179.014404,80.208252 179.87915,81.1618652 C180.743896,82.1154785 181.870117,82.5922852 183.257812,82.5922852 Z M185.339355,75.9990234 L180.489258,75.9990234 C180.550781,75.1445312 180.836182,74.4387207 181.345459,73.8815918 C181.854736,73.3244629 182.458008,73.0458984 183.155273,73.0458984 C183.866211,73.0458984 184.407959,73.2714844 184.780518,73.7226562 C185.153076,74.1738281 185.339355,74.8232422 185.339355,75.6708984 L185.339355,75.6708984 L185.339355,75.9990234 Z M192.227246,82.5922852 C192.794629,82.5922852 193.338086,82.4897461 193.857617,82.284668 C194.377148,82.0795898 194.910352,81.7583008 195.457227,81.3208008 L195.457227,81.3208008 L195.457227,82.4077148 L198.56416,82.4077148 L198.56416,81.6489258 L197.559277,81.5463867 L197.200391,81.2080078 L197.200391,66.9550781 L196.41084,66.9550781 L193.847363,67.7036133 L193.847363,68.3598633 L195.457227,68.3598633 L195.457227,72.3076172 C195.122266,72.2324219 194.797559,72.1743164 194.483105,72.1333008 C194.168652,72.0922852 193.871289,72.0717773 193.591016,72.0717773 C191.98457,72.0717773 190.680615,72.5895996 189.67915,73.6252441 C188.677686,74.6608887 188.176953,76.0126953 188.176953,77.6806641 C188.176953,79.1162109 188.558057,80.2937012 189.320264,81.2131348 C190.082471,82.1325684 191.051465,82.5922852 192.227246,82.5922852 Z M193.170605,81.2695312 C192.213574,81.2695312 191.449658,80.9140625 190.878857,80.203125 C190.308057,79.4921875 190.022656,78.5317383 190.022656,77.3217773 C190.022656,76.0229492 190.35249,74.9770508 191.012158,74.184082 C191.671826,73.3911133 192.538281,72.9946289 193.611523,72.9946289 C193.850781,72.9946289 194.12251,73.0236816 194.426709,73.0817871 C194.730908,73.1398926 195.074414,73.2236328 195.457227,73.3330078 L195.457227,73.3330078 L195.457227,80.5415039 C195.060742,80.7875977 194.672803,80.970459 194.293408,81.0900879 C193.914014,81.2097168 193.539746,81.2695312 193.170605,81.2695312 Z M211.827246,82.6640625 C212.524512,82.6640625 213.232031,82.6008301 213.949805,82.4743652 C214.667578,82.3479004 215.37168,82.1650391 216.062109,81.9257812 L216.062109,81.9257812 L216.062109,78.6035156 L214.93418,78.6035156 L214.421484,80.9414062 L214.093359,81.2695312 C213.785742,81.3652344 213.479834,81.4353027 213.175635,81.4797363 C212.871436,81.5241699 212.568945,81.5463867 212.268164,81.5463867 C210.552344,81.5463867 209.209082,80.9841309 208.238379,79.8596191 C207.267676,78.7351074 206.782324,77.1850586 206.782324,75.2094727 C206.782324,73.3500977 207.247168,71.8803711 208.176855,70.800293 C209.106543,69.7202148 210.364355,69.1801758 211.950293,69.1801758 C212.346777,69.1801758 212.736426,69.2246094 213.119238,69.3134766 C213.502051,69.4023438 213.895117,69.5390625 214.298438,69.7236328 L214.298438,69.7236328 L214.575293,70.1030273 L214.893164,72.0102539 L216.062109,72.0102539 L216.062109,68.7802734 C215.310156,68.5410156 214.587256,68.3615723 213.893408,68.2419434 C213.199561,68.1223145 212.538184,68.0625 211.909277,68.0625 C209.721777,68.0625 207.959814,68.7307129 206.623389,70.0671387 C205.286963,71.4035645 204.61875,73.1655273 204.61875,75.3530273 C204.61875,76.7202148 204.941748,77.9797363 205.587744,79.1315918 C206.23374,80.2834473 207.120703,81.1806641 208.248633,81.8232422 C208.74082,82.0966797 209.287695,82.3051758 209.889258,82.4487305 C210.49082,82.5922852 211.136816,82.6640625 211.827246,82.6640625 Z M221.135059,82.612793 C221.634082,82.612793 222.162158,82.5 222.719287,82.2744141 C223.276416,82.0488281 223.883105,81.7001953 224.539355,81.2285156 L224.539355,81.2285156 L224.539355,82.4077148 L227.646289,82.4077148 L227.646289,81.6489258 L226.661914,81.5463867 L226.28252,81.2080078 L226.28252,72.0922852 L225.482715,72.0922852 L223.042285,72.871582 L223.042285,73.527832 L224.539355,73.527832 L224.539355,80.644043 C224.101855,80.855957 223.683154,81.0131836 223.283252,81.1157227 C222.88335,81.2182617 222.488574,81.2695312 222.098926,81.2695312 C221.40166,81.2695312 220.888965,81.0900879 220.56084,80.7312012 C220.232715,80.3723145 220.068652,79.8100586 220.068652,79.0444336 L220.068652,79.0444336 L220.068652,72.0922852 L219.268848,72.0922852 L216.828418,72.871582 L216.828418,73.527832 L218.325488,73.527832 L218.325488,79.4033203 C218.325488,80.4423828 218.566455,81.2370605 219.048389,81.7873535 C219.530322,82.3376465 220.225879,82.612793 221.135059,82.612793 Z M233.22168,82.4077148 L233.22168,81.6489258 L231.755371,81.5463867 L231.396484,81.2080078 L231.396484,75.2094727 C231.84082,74.6831055 232.249268,74.295166 232.621826,74.0456543 C232.994385,73.7961426 233.348145,73.6713867 233.683105,73.6713867 C233.901855,73.6713867 234.101807,73.7141113 234.282959,73.7995605 C234.464111,73.8850098 234.623047,74.0097656 234.759766,74.1738281 L234.759766,74.1738281 L235.42627,74.1738281 L235.42627,72.3691406 C235.20752,72.2734375 234.995605,72.2033691 234.790527,72.1589355 C234.585449,72.114502 234.376953,72.0922852 234.165039,72.0922852 C234.021484,72.0922852 233.913818,72.0957031 233.842041,72.1025391 C233.770264,72.109375 233.703613,72.1230469 233.64209,72.1435547 C233.231934,72.4716797 232.840576,72.8049316 232.468018,73.1433105 C232.095459,73.4816895 231.738281,73.8251953 231.396484,74.1738281 L231.396484,74.1738281 L231.396484,72.2050781 L230.59668,72.2050781 L228.15625,72.9536133 L228.15625,73.6098633 L229.632812,73.6098633 L229.632812,81.2080078 L229.273926,81.5463867 L228.15625,81.6489258 L228.15625,82.4077148 L233.22168,82.4077148 Z M240.540234,82.4077148 L240.540234,81.6489258 L239.073926,81.5463867 L238.715039,81.2080078 L238.715039,75.2094727 C239.159375,74.6831055 239.567822,74.295166 239.940381,74.0456543 C240.312939,73.7961426 240.666699,73.6713867 241.00166,73.6713867 C241.22041,73.6713867 241.420361,73.7141113 241.601514,73.7995605 C241.782666,73.8850098 241.941602,74.0097656 242.07832,74.1738281 L242.07832,74.1738281 L242.744824,74.1738281 L242.744824,72.3691406 C242.526074,72.2734375 242.31416,72.2033691 242.109082,72.1589355 C241.904004,72.114502 241.695508,72.0922852 241.483594,72.0922852 C241.340039,72.0922852 241.232373,72.0957031 241.160596,72.1025391 C241.088818,72.109375 241.022168,72.1230469 240.960645,72.1435547 C240.550488,72.4716797 240.159131,72.8049316 239.786572,73.1433105 C239.414014,73.4816895 239.056836,73.8251953 238.715039,74.1738281 L238.715039,74.1738281 L238.715039,72.2050781 L237.915234,72.2050781 L235.474805,72.9536133 L235.474805,73.6098633 L236.951367,73.6098633 L236.951367,81.2080078 L236.59248,81.5463867 L235.474805,81.6489258 L235.474805,82.4077148 L240.540234,82.4077148 Z M245.397852,69.9594727 C245.739648,69.9594727 246.028467,69.8432617 246.264307,69.6108398 C246.500146,69.378418 246.618066,69.0947266 246.618066,68.7597656 C246.618066,68.4248047 246.500146,68.1376953 246.264307,67.8984375 C246.028467,67.6591797 245.739648,67.5395508 245.397852,67.5395508 C245.062891,67.5395508 244.77749,67.6574707 244.54165,67.8933105 C244.305811,68.1291504 244.187891,68.4179688 244.187891,68.7597656 C244.187891,69.0947266 244.305811,69.378418 244.54165,69.6108398 C244.77749,69.8432617 245.062891,69.9594727 245.397852,69.9594727 Z M247.622949,82.4077148 L247.622949,81.6489258 L246.49502,81.5463867 L246.136133,81.2080078 L246.136133,72.2050781 L245.31582,72.2050781 L242.906152,72.9536133 L242.906152,73.6098633 L244.372461,73.6098633 L244.372461,81.2080078 L244.013574,81.5463867 L242.906152,81.6489258 L242.906152,82.4077148 L247.622949,82.4077148 Z M252.798437,82.5922852 C253.475195,82.5922852 254.148535,82.4863281 254.818457,82.2744141 C255.488379,82.0625 256.134375,81.7514648 256.756445,81.3413086 L256.756445,81.3413086 L256.756445,80.1826172 C256.127539,80.5996094 255.544775,80.9072266 255.008154,81.1054688 C254.471533,81.3037109 253.953711,81.402832 253.454687,81.402832 C252.374609,81.402832 251.516699,81.0183105 250.880957,80.2492676 C250.245215,79.4802246 249.927344,78.4360352 249.927344,77.1166992 L249.927344,77.1166992 L249.927344,76.8808594 L256.725684,76.8808594 C256.739355,76.7988281 256.7479,76.7133789 256.751318,76.6245117 C256.754736,76.5356445 256.756445,76.4057617 256.756445,76.2348633 C256.756445,74.956543 256.416357,73.9465332 255.736182,73.204834 C255.056006,72.4631348 254.134863,72.0922852 252.972754,72.0922852 C251.550879,72.0922852 250.387061,72.5895996 249.481299,73.5842285 C248.575537,74.5788574 248.122656,75.8623047 248.122656,77.4345703 C248.122656,78.9658203 248.555029,80.208252 249.419775,81.1618652 C250.284521,82.1154785 251.410742,82.5922852 252.798437,82.5922852 Z M254.87998,75.9990234 L250.029883,75.9990234 C250.091406,75.1445312 250.376807,74.4387207 250.886084,73.8815918 C251.395361,73.3244629 251.998633,73.0458984 252.695898,73.0458984 C253.406836,73.0458984 253.948584,73.2714844 254.321143,73.7226562 C254.693701,74.1738281 254.87998,74.8232422 254.87998,75.6708984 L254.87998,75.6708984 L254.87998,75.9990234 Z M262.649707,82.4077148 L262.649707,81.6489258 L261.183398,81.5463867 L260.824512,81.2080078 L260.824512,75.2094727 C261.268848,74.6831055 261.677295,74.295166 262.049854,74.0456543 C262.422412,73.7961426 262.776172,73.6713867 263.111133,73.6713867 C263.329883,73.6713867 263.529834,73.7141113 263.710986,73.7995605 C263.892139,73.8850098 264.051074,74.0097656 264.187793,74.1738281 L264.187793,74.1738281 L264.854297,74.1738281 L264.854297,72.3691406 C264.635547,72.2734375 264.423633,72.2033691 264.218555,72.1589355 C264.013477,72.114502 263.80498,72.0922852 263.593066,72.0922852 C263.449512,72.0922852 263.341846,72.0957031 263.270068,72.1025391 C263.198291,72.109375 263.131641,72.1230469 263.070117,72.1435547 C262.659961,72.4716797 262.268604,72.8049316 261.896045,73.1433105 C261.523486,73.4816895 261.166309,73.8251953 260.824512,74.1738281 L260.824512,74.1738281 L260.824512,72.2050781 L260.024707,72.2050781 L257.584277,72.9536133 L257.584277,73.6098633 L259.06084,73.6098633 L259.06084,81.2080078 L258.701953,81.5463867 L257.584277,81.6489258 L257.584277,82.4077148 L262.649707,82.4077148 Z" id="YourTrustedCurrier" fill="#061E5C" fill-rule="nonzero"></path></g></g></g></svg>