<svg xmlns="http://www.w3.org/2000/svg" xmlns:xlink="http://www.w3.org/1999/xlink" width="306px" height="77px" viewBox="0 0 306 77"><title>6</title><g id="Page-1" stroke="none" stroke-width="1" fill="none" fill-rule="evenodd"><g id="5" transform="translate(-20.000000, -19.000000)" fill-rule="nonzero"><g id="6" transform="translate(19.000000, 11.000000)"><path d="M100.884277,55 L100.884277,29.5634766 C100.884277,28.0742188 100.765137,25.0262044 100.526855,20.4194336 L100.526855,20.4194336 L103.713867,31.5888672 L111.279297,55 L117.53418,55 L125.099609,31.5888672 C125.212131,31.2380642 125.334857,30.8423078 125.467787,30.4015978 L125.632201,29.8511681 C126.281231,27.6584731 127.146181,24.5145616 128.227051,20.4194336 C128.04834,24.7879232 127.95402,27.2600911 127.944092,27.8359375 C127.934163,28.4117839 127.929199,28.9876302 127.929199,29.5634766 L127.929199,29.5634766 L127.929199,55 L135.73291,55 L135.73291,13.0327148 L124.027344,13.0327148 L116.312988,37.6650391 L114.436523,44.3964844 L113.006836,38.7670898 L112.351562,36.503418 L104.845703,13.0327148 L93.0805664,13.0327148 L93.0805664,55 L100.884277,55 Z M151.466265,55.5957031 C156.192176,55.5957031 159.726682,53.480957 162.069781,49.2514648 L162.069781,49.2514648 L162.248492,49.2514648 C162.447059,51.2569987 163.047727,52.7760417 164.050493,53.8085938 C165.05326,54.8411458 166.607053,55.3574219 168.71187,55.3574219 C169.307574,55.3574219 169.828814,55.3375651 170.275591,55.2978516 C170.722368,55.258138 171.144325,55.2084961 171.54146,55.1489258 C171.938596,55.0893555 172.335731,55.0099284 172.732867,54.9106445 C173.130002,54.8113607 173.576779,54.7021484 174.073199,54.5830078 L174.073199,54.5830078 L174.073199,50.0556641 C173.477495,50.1748047 172.861936,50.234375 172.226519,50.234375 C171.273394,50.234375 170.593299,49.8918457 170.186236,49.2067871 C169.779172,48.5217285 169.57564,47.2757161 169.57564,45.46875 L169.57564,45.46875 L169.57564,33.7333984 C169.57564,30.0400391 168.473589,27.1905924 166.269488,25.1850586 C164.065386,23.1795247 160.928016,22.1767578 156.857378,22.1767578 C152.826454,22.1767578 149.644406,22.9859212 147.311236,24.604248 C144.978065,26.2225749 143.543413,28.6004232 143.007281,31.737793 L143.007281,31.737793 L151.734331,32.1547852 C151.913042,30.5265299 152.364784,29.3599447 153.089556,28.6550293 C153.814328,27.9501139 154.951128,27.5976562 156.499956,27.5976562 C158.167925,27.5976562 159.36926,28.1089681 160.10396,29.1315918 C160.838661,30.1542155 161.206011,31.7179362 161.206011,33.8227539 L161.206011,33.8227539 L161.206011,35.4609375 L154.26607,35.5800781 C150.135861,35.6197917 146.983599,36.5133464 144.809283,38.2607422 C142.634966,40.008138 141.547808,42.5498047 141.547808,45.8857422 C141.547808,48.9635417 142.421506,51.3513184 144.168902,53.0490723 C145.916298,54.7468262 148.348752,55.5957031 151.466265,55.5957031 Z M154.146929,49.7578125 C152.97538,49.7578125 152.037147,49.385498 151.332232,48.6408691 C150.627316,47.8962402 150.274859,46.7594401 150.274859,45.2304688 C150.274859,44.0390625 150.488319,43.0859375 150.91524,42.3710938 C151.34216,41.65625 151.962684,41.1250814 152.776812,40.7775879 C153.590939,40.4300944 154.970985,40.2166341 156.916949,40.137207 L156.916949,40.137207 L161.206011,40.0776367 L161.206011,41.7158203 C161.206011,43.125651 160.898231,44.4610189 160.282671,45.7219238 C159.667111,46.9828288 158.818234,47.9707031 157.73604,48.6855469 C156.653846,49.4003906 155.457476,49.7578125 154.146929,49.7578125 Z M186.26212,55 L186.26212,39.184082 C186.26212,35.8680013 186.84293,33.3660482 188.004551,31.6782227 C189.166173,29.9903971 190.789464,29.1464844 192.874424,29.1464844 C193.906977,29.1464844 195.098383,29.2954102 196.448643,29.5932617 L196.448643,29.5932617 L196.448643,22.59375 C195.79337,22.2958984 194.9296,22.1469727 193.857335,22.1469727 C192.546788,22.1469727 191.454665,22.3703613 190.580967,22.8171387 C189.70727,23.263916 188.952712,23.9489746 188.317296,24.8723145 C187.681879,25.7956543 186.957107,27.3891602 186.142979,29.652832 L186.142979,29.652832 L186.023839,29.652832 C186.023839,29.0571289 185.974197,27.8508301 185.874913,26.0339355 C185.775629,24.217041 185.696202,23.1298828 185.636631,22.7724609 L185.636631,22.7724609 L177.65421,22.7724609 C177.71378,23.6858724 177.768386,24.7333171 177.818028,25.9147949 C177.86767,27.0962728 177.892491,28.570638 177.892491,30.3378906 L177.892491,30.3378906 L177.892491,55 L186.26212,55 Z M209.828971,55.5361328 C212.469921,55.5361328 214.822949,55.1985677 216.888053,54.5234375 L216.888053,54.5234375 L216.888053,49.3408203 C215.67679,49.6188151 214.743521,49.7578125 214.088248,49.7578125 C212.837271,49.7578125 211.913932,49.385498 211.318229,48.6408691 C210.722525,47.8962402 210.424674,46.7395833 210.424674,45.1708984 L210.424674,45.1708984 L210.424674,28.4316406 L216.530631,28.4316406 L216.530631,22.7724609 L210.424674,22.7724609 L210.424674,15.2070312 L205.182486,15.2070312 L202.561393,22.7724609 L198.063834,22.7724609 L198.063834,28.4316406 L202.1444,28.4316406 L202.1444,47.4345703 C202.1444,50.1549479 202.809602,52.1853027 204.140006,53.5256348 C205.470409,54.8659668 207.366731,55.5361328 209.828971,55.5361328 Z M230.20881,16.9643555 L230.20881,10.7988281 L221.839181,10.7988281 L221.839181,16.9643555 L230.20881,16.9643555 Z M230.20881,55 L230.20881,22.7724609 L221.839181,22.7724609 L221.839181,55 L230.20881,55 Z M247.103786,55 L247.103786,37.7246094 C247.103786,35.0042318 247.72431,32.7753092 248.965358,31.0378418 C250.206406,29.3003743 251.839626,28.4316406 253.865016,28.4316406 C257.697373,28.4316406 259.613551,31.2612305 259.613551,36.9204102 L259.613551,36.9204102 L259.613551,55 L267.953395,55 L267.953395,34.5375977 C267.953395,30.4868164 267.039984,27.4090169 265.213161,25.3041992 C263.386338,23.1993815 260.765244,22.1469727 257.34988,22.1469727 C254.986924,22.1469727 252.951605,22.7029622 251.243922,23.8149414 C249.53624,24.9269206 248.116481,26.7140299 246.984645,29.1762695 L246.984645,29.1762695 L246.865505,29.1762695 C246.865505,28.5607096 246.815863,27.4338379 246.716579,25.7956543 C246.617295,24.1574707 246.537868,23.1497396 246.478297,22.7724609 L246.478297,22.7724609 L238.495876,22.7724609 C238.555446,23.6461589 238.610052,24.6340332 238.659694,25.736084 C238.709336,26.8381348 238.734157,28.2529297 238.734157,29.9804688 L238.734157,29.9804688 L238.734157,55 L247.103786,55 Z M290.179914,55.5957031 C295.302961,55.5957031 299.314029,54.1114095 302.213117,51.1428223 C305.112206,48.174235 306.56175,44.078776 306.56175,38.8564453 C306.56175,33.4752604 305.17674,29.3500163 302.406721,26.4807129 C299.636701,23.6114095 295.620669,22.1767578 290.358625,22.1767578 C285.215721,22.1767578 281.214582,23.6610514 278.355207,26.6296387 C275.495832,29.5982259 274.066145,33.6738281 274.066145,38.8564453 C274.066145,44.0589193 275.495832,48.1494141 278.355207,51.1279297 C281.214582,54.1064453 285.156151,55.5957031 290.179914,55.5957031 Z M290.090559,49.8769531 C287.74746,49.8769531 285.955386,48.9387207 284.714338,47.0622559 C283.47329,45.185791 282.852766,42.4505208 282.852766,38.8564453 C282.852766,31.5690104 285.394432,27.925293 290.477766,27.925293 C292.860578,27.925293 294.677473,28.7890625 295.928449,30.5166016 C297.179426,32.2441406 297.804914,35.0240885 297.804914,38.8564453 C297.804914,46.2034505 295.233462,49.8769531 290.090559,49.8769531 Z" id="Martino" fill="#2D313C"></path><path d="M176.046875,81.28125 C176.682292,81.28125 177.270833,81.1796875 177.8125,80.9765625 C178.354167,80.7734375 178.809896,80.5026042 179.179688,80.1640625 C179.549479,79.8255208 179.856771,79.4817708 180.101562,79.1328125 C180.346354,78.7838542 180.546875,78.421875 180.703125,78.046875 L180.703125,78.046875 L178.859375,77.46875 C178.630208,78.0416667 178.263021,78.5260417 177.757812,78.921875 C177.252604,79.3177083 176.671875,79.515625 176.015625,79.515625 C175.005208,79.515625 174.197917,79.09375 173.59375,78.25 C172.989583,77.40625 172.6875,76.2604167 172.6875,74.8125 C172.6875,73.3854167 172.986979,72.2473958 173.585938,71.3984375 C174.184896,70.5494792 174.994792,70.125 176.015625,70.125 C177.088542,70.125 177.958333,70.7239583 178.625,71.921875 L178.625,71.921875 L180.390625,71.34375 C180.026042,70.5 179.471354,69.7916667 178.726562,69.21875 C177.981771,68.6458333 177.088542,68.359375 176.046875,68.359375 C174.432292,68.359375 173.114583,68.9401042 172.09375,70.1015625 C171.072917,71.2630208 170.5625,72.8333333 170.5625,74.8125 C170.5625,76.8229167 171.080729,78.4036458 172.117188,79.5546875 C173.153646,80.7057292 174.463542,81.28125 176.046875,81.28125 Z M185.78125,81.28125 C186.40625,81.28125 186.966146,81.1770833 187.460938,80.96875 C187.955729,80.7604167 188.354167,80.4921875 188.65625,80.1640625 C188.958333,79.8359375 189.208333,79.4557292 189.40625,79.0234375 C189.604167,78.5911458 189.742188,78.1666667 189.820312,77.75 C189.898438,77.3333333 189.9375,76.9166667 189.9375,76.5 C189.9375,75.15625 189.583333,74.0208333 188.875,73.09375 C188.166667,72.1666667 187.135417,71.703125 185.78125,71.703125 C184.416667,71.703125 183.380208,72.1666667 182.671875,73.09375 C181.963542,74.0208333 181.609375,75.15625 181.609375,76.5 C181.609375,76.9375 181.648438,77.3671875 181.726562,77.7890625 C181.804688,78.2109375 181.945312,78.6380208 182.148438,79.0703125 C182.351562,79.5026042 182.606771,79.8776042 182.914062,80.1953125 C183.221354,80.5130208 183.622396,80.7734375 184.117188,80.9765625 C184.611979,81.1796875 185.166667,81.28125 185.78125,81.28125 Z M185.78125,79.59375 C185.208333,79.59375 184.708333,79.3385417 184.28125,78.828125 C183.854167,78.3177083 183.640625,77.5416667 183.640625,76.5 C183.640625,75.4375 183.856771,74.6536458 184.289062,74.1484375 C184.721354,73.6432292 185.21875,73.390625 185.78125,73.390625 C186.34375,73.390625 186.838542,73.6432292 187.265625,74.1484375 C187.692708,74.6536458 187.90625,75.4375 187.90625,76.5 C187.90625,77.5416667 187.692708,78.3177083 187.265625,78.828125 C186.838542,79.3385417 186.34375,79.59375 185.78125,79.59375 Z M193.703125,81 L193.703125,68.234375 L191.734375,68.234375 L191.734375,81 L193.703125,81 Z M199.671875,81.28125 C200.296875,81.28125 200.856771,81.1770833 201.351562,80.96875 C201.846354,80.7604167 202.244792,80.4921875 202.546875,80.1640625 C202.848958,79.8359375 203.098958,79.4557292 203.296875,79.0234375 C203.494792,78.5911458 203.632812,78.1666667 203.710938,77.75 C203.789062,77.3333333 203.828125,76.9166667 203.828125,76.5 C203.828125,75.15625 203.473958,74.0208333 202.765625,73.09375 C202.057292,72.1666667 201.026042,71.703125 199.671875,71.703125 C198.307292,71.703125 197.270833,72.1666667 196.5625,73.09375 C195.854167,74.0208333 195.5,75.15625 195.5,76.5 C195.5,76.9375 195.539062,77.3671875 195.617188,77.7890625 C195.695312,78.2109375 195.835938,78.6380208 196.039062,79.0703125 C196.242188,79.5026042 196.497396,79.8776042 196.804688,80.1953125 C197.111979,80.5130208 197.513021,80.7734375 198.007812,80.9765625 C198.502604,81.1796875 199.057292,81.28125 199.671875,81.28125 Z M199.671875,79.59375 C199.098958,79.59375 198.598958,79.3385417 198.171875,78.828125 C197.744792,78.3177083 197.53125,77.5416667 197.53125,76.5 C197.53125,75.4375 197.747396,74.6536458 198.179688,74.1484375 C198.611979,73.6432292 199.109375,73.390625 199.671875,73.390625 C200.234375,73.390625 200.729167,73.6432292 201.15625,74.1484375 C201.583333,74.6536458 201.796875,75.4375 201.796875,76.5 C201.796875,77.5416667 201.583333,78.3177083 201.15625,78.828125 C200.729167,79.3385417 200.234375,79.59375 199.671875,79.59375 Z M207.4375,81 L207.4375,76.40625 C207.4375,75.53125 207.617188,74.8307292 207.976562,74.3046875 C208.335938,73.7786458 208.854167,73.515625 209.53125,73.515625 C209.916667,73.515625 210.307292,73.578125 210.703125,73.703125 L210.703125,73.703125 L210.703125,71.90625 C210.401042,71.7708333 210.010417,71.703125 209.53125,71.703125 C209.020833,71.703125 208.580729,71.828125 208.210938,72.078125 C207.841146,72.328125 207.557292,72.6197917 207.359375,72.953125 L207.359375,72.953125 L207.359375,71.984375 L205.453125,71.984375 L205.453125,81 L207.4375,81 Z M214.96875,81.28125 C216.104167,81.28125 216.981771,81.0234375 217.601562,80.5078125 C218.221354,79.9921875 218.53125,79.3645833 218.53125,78.625 C218.53125,77.4270833 217.604167,76.53125 215.75,75.9375 C215.697917,75.9166667 215.614583,75.890625 215.5,75.859375 C215.0625,75.7135417 214.723958,75.59375 214.484375,75.5 C214.244792,75.40625 214.013021,75.2578125 213.789062,75.0546875 C213.565104,74.8515625 213.453125,74.6197917 213.453125,74.359375 C213.453125,74.046875 213.580729,73.7942708 213.835938,73.6015625 C214.091146,73.4088542 214.458333,73.3125 214.9375,73.3125 C215.8125,73.3125 216.557292,73.734375 217.171875,74.578125 L217.171875,74.578125 L218.484375,73.78125 C218.161458,73.1770833 217.671875,72.6796875 217.015625,72.2890625 C216.359375,71.8984375 215.661458,71.703125 214.921875,71.703125 C213.932292,71.703125 213.104167,71.9427083 212.4375,72.421875 C211.770833,72.9010417 211.4375,73.5364583 211.4375,74.328125 C211.4375,74.734375 211.510417,75.0911458 211.65625,75.3984375 C211.802083,75.7057292 212.015625,75.9609375 212.296875,76.1640625 C212.578125,76.3671875 212.846354,76.5286458 213.101562,76.6484375 C213.356771,76.7682292 213.671875,76.890625 214.046875,77.015625 C214.088542,77.0260417 214.15625,77.046875 214.25,77.078125 C214.770833,77.2447917 215.161458,77.3776042 215.421875,77.4765625 C215.682292,77.5755208 215.929688,77.7239583 216.164062,77.921875 C216.398438,78.1197917 216.515625,78.3489583 216.515625,78.609375 C216.515625,78.9322917 216.372396,79.1901042 216.085938,79.3828125 C215.799479,79.5755208 215.411458,79.671875 214.921875,79.671875 C213.921875,79.671875 213.109375,79.2135417 212.484375,78.296875 L212.484375,78.296875 L211.0625,79.125 C211.427083,79.7916667 211.950521,80.3177083 212.632812,80.703125 C213.315104,81.0885417 214.09375,81.28125 214.96875,81.28125 Z M227.640625,81.28125 C228.265625,81.28125 228.825521,81.1770833 229.320312,80.96875 C229.815104,80.7604167 230.213542,80.4921875 230.515625,80.1640625 C230.817708,79.8359375 231.067708,79.4557292 231.265625,79.0234375 C231.463542,78.5911458 231.601562,78.1666667 231.679688,77.75 C231.757812,77.3333333 231.796875,76.9166667 231.796875,76.5 C231.796875,75.15625 231.442708,74.0208333 230.734375,73.09375 C230.026042,72.1666667 228.994792,71.703125 227.640625,71.703125 C226.276042,71.703125 225.239583,72.1666667 224.53125,73.09375 C223.822917,74.0208333 223.46875,75.15625 223.46875,76.5 C223.46875,76.9375 223.507812,77.3671875 223.585938,77.7890625 C223.664062,78.2109375 223.804688,78.6380208 224.007812,79.0703125 C224.210938,79.5026042 224.466146,79.8776042 224.773438,80.1953125 C225.080729,80.5130208 225.481771,80.7734375 225.976562,80.9765625 C226.471354,81.1796875 227.026042,81.28125 227.640625,81.28125 Z M227.640625,79.59375 C227.067708,79.59375 226.567708,79.3385417 226.140625,78.828125 C225.713542,78.3177083 225.5,77.5416667 225.5,76.5 C225.5,75.4375 225.716146,74.6536458 226.148438,74.1484375 C226.580729,73.6432292 227.078125,73.390625 227.640625,73.390625 C228.203125,73.390625 228.697917,73.6432292 229.125,74.1484375 C229.552083,74.6536458 229.765625,75.4375 229.765625,76.5 C229.765625,77.5416667 229.552083,78.3177083 229.125,78.828125 C228.697917,79.3385417 228.203125,79.59375 227.640625,79.59375 Z M236.09375,81 L236.09375,73.671875 L237.96875,73.671875 L237.96875,71.984375 L236.09375,71.984375 L236.09375,71.15625 C236.09375,70.71875 236.169271,70.4010417 236.320312,70.203125 C236.471354,70.0052083 236.708333,69.90625 237.03125,69.90625 L237.03125,69.90625 L238.171875,69.90625 L238.171875,68.234375 L236.75,68.234375 C235.90625,68.234375 235.252604,68.4661458 234.789062,68.9296875 C234.325521,69.3932292 234.09375,70.0885417 234.09375,71.015625 L234.09375,71.015625 L234.09375,71.984375 L232.71875,71.984375 L232.71875,73.671875 L234.09375,73.671875 L234.09375,81 L236.09375,81 Z M243.734375,84.6875 C244.515625,84.6875 245.169271,84.5 245.695312,84.125 C246.221354,83.75 246.651042,83.1041667 246.984375,82.1875 L246.984375,82.1875 L250.71875,71.984375 L248.5625,71.984375 L247.140625,76.625 C246.807292,77.8229167 246.614583,78.515625 246.5625,78.703125 L246.5625,78.703125 L246.5,78.703125 C246.364583,78.171875 246.166667,77.4791667 245.90625,76.625 L245.90625,76.625 L244.359375,71.984375 L242.1875,71.984375 L245.5625,80.78125 L245.265625,81.671875 C245.088542,82.171875 244.851562,82.5234375 244.554688,82.7265625 C244.257812,82.9296875 243.875,83.03125 243.40625,83.03125 L243.40625,83.03125 L243.125,83.03125 L243.125,84.6875 L243.734375,84.6875 Z M255.5625,81.28125 C256.1875,81.28125 256.747396,81.1770833 257.242188,80.96875 C257.736979,80.7604167 258.135417,80.4921875 258.4375,80.1640625 C258.739583,79.8359375 258.989583,79.4557292 259.1875,79.0234375 C259.385417,78.5911458 259.523438,78.1666667 259.601562,77.75 C259.679688,77.3333333 259.71875,76.9166667 259.71875,76.5 C259.71875,75.15625 259.364583,74.0208333 258.65625,73.09375 C257.947917,72.1666667 256.916667,71.703125 255.5625,71.703125 C254.197917,71.703125 253.161458,72.1666667 252.453125,73.09375 C251.744792,74.0208333 251.390625,75.15625 251.390625,76.5 C251.390625,76.9375 251.429688,77.3671875 251.507812,77.7890625 C251.585938,78.2109375 251.726562,78.6380208 251.929688,79.0703125 C252.132812,79.5026042 252.388021,79.8776042 252.695312,80.1953125 C253.002604,80.5130208 253.403646,80.7734375 253.898438,80.9765625 C254.393229,81.1796875 254.947917,81.28125 255.5625,81.28125 Z M255.5625,79.59375 C254.989583,79.59375 254.489583,79.3385417 254.0625,78.828125 C253.635417,78.3177083 253.421875,77.5416667 253.421875,76.5 C253.421875,75.4375 253.638021,74.6536458 254.070312,74.1484375 C254.502604,73.6432292 255,73.390625 255.5625,73.390625 C256.125,73.390625 256.619792,73.6432292 257.046875,74.1484375 C257.473958,74.6536458 257.6875,75.4375 257.6875,76.5 C257.6875,77.5416667 257.473958,78.3177083 257.046875,78.828125 C256.619792,79.3385417 256.125,79.59375 255.5625,79.59375 Z M264.265625,81.28125 C264.880208,81.28125 265.393229,81.140625 265.804688,80.859375 C266.216146,80.578125 266.494792,80.2760417 266.640625,79.953125 L266.640625,79.953125 L266.65625,79.953125 L266.65625,81 L268.5625,81 L268.5625,71.984375 L266.59375,71.984375 L266.59375,77.03125 C266.59375,77.7291667 266.427083,78.3307292 266.09375,78.8359375 C265.760417,79.3411458 265.296875,79.59375 264.703125,79.59375 C263.713542,79.59375 263.21875,78.890625 263.21875,77.484375 L263.21875,77.484375 L263.21875,71.984375 L261.234375,71.984375 L261.234375,77.734375 C261.234375,78.4114583 261.328125,78.9947917 261.515625,79.484375 C261.703125,79.9739583 261.953125,80.3411458 262.265625,80.5859375 C262.578125,80.8307292 262.898438,81.0078125 263.226562,81.1171875 C263.554688,81.2265625 263.901042,81.28125 264.265625,81.28125 Z M272.703125,81 L272.703125,76.40625 C272.703125,75.53125 272.882812,74.8307292 273.242188,74.3046875 C273.601562,73.7786458 274.119792,73.515625 274.796875,73.515625 C275.182292,73.515625 275.572917,73.578125 275.96875,73.703125 L275.96875,73.703125 L275.96875,71.90625 C275.666667,71.7708333 275.276042,71.703125 274.796875,71.703125 C274.286458,71.703125 273.846354,71.828125 273.476562,72.078125 C273.106771,72.328125 272.822917,72.6197917 272.625,72.953125 L272.625,72.953125 L272.625,71.984375 L270.71875,71.984375 L270.71875,81 L272.703125,81 Z M283.046875,81 L283.046875,68.234375 L281.078125,68.234375 L281.078125,81 L283.046875,81 Z M287.59375,70.640625 L287.59375,68.46875 L285.46875,68.46875 L285.46875,70.640625 L287.59375,70.640625 Z M287.515625,81 L287.515625,71.984375 L285.5625,71.984375 L285.5625,81 L287.515625,81 Z M292.53125,81 L292.53125,73.671875 L294.40625,73.671875 L294.40625,71.984375 L292.53125,71.984375 L292.53125,71.15625 C292.53125,70.71875 292.606771,70.4010417 292.757812,70.203125 C292.908854,70.0052083 293.145833,69.90625 293.46875,69.90625 L293.46875,69.90625 L294.609375,69.90625 L294.609375,68.234375 L293.1875,68.234375 C292.34375,68.234375 291.690104,68.4661458 291.226562,68.9296875 C290.763021,69.3932292 290.53125,70.0885417 290.53125,71.015625 L290.53125,71.015625 L290.53125,71.984375 L289.15625,71.984375 L289.15625,73.671875 L290.53125,73.671875 L290.53125,81 L292.53125,81 Z M299.453125,81.28125 C300.432292,81.28125 301.25,81.0572917 301.90625,80.609375 C302.5625,80.1614583 303.036458,79.6041667 303.328125,78.9375 L303.328125,78.9375 L301.671875,78.375 C301.473958,78.7604167 301.184896,79.0755208 300.804688,79.3203125 C300.424479,79.5651042 299.984375,79.6875 299.484375,79.6875 C298.765625,79.6875 298.200521,79.4401042 297.789062,78.9453125 C297.377604,78.4505208 297.171875,77.859375 297.171875,77.171875 L297.171875,77.171875 L303.421875,77.171875 C303.453125,76.9114583 303.46875,76.6458333 303.46875,76.375 C303.46875,74.9895833 303.083333,73.8645833 302.3125,73 C301.541667,72.1354167 300.5625,71.703125 299.375,71.703125 C298.166667,71.703125 297.164062,72.1328125 296.367188,72.9921875 C295.570312,73.8515625 295.171875,75.0052083 295.171875,76.453125 C295.171875,77.921875 295.570312,79.09375 296.367188,79.96875 C297.164062,80.84375 298.192708,81.28125 299.453125,81.28125 Z M301.453125,75.78125 L297.203125,75.78125 C297.213542,75.1145833 297.414062,74.5338542 297.804688,74.0390625 C298.195312,73.5442708 298.71875,73.296875 299.375,73.296875 C300.03125,73.296875 300.541667,73.5390625 300.90625,74.0234375 C301.270833,74.5078125 301.453125,75.09375 301.453125,75.78125 L301.453125,75.78125 Z" id="Colorsofyourlife" fill="#25272B" opacity="0.595853016"></path><g id="floors" transform="translate(34.000000, 45.000000) rotate(-90.000000) translate(-34.000000, -45.000000) translate(-3.500000, 11.500000)"><path d="M64.4097196,18.5 L2.18099303,18.5 C1.58545273,18.4997021 1.03447969,18.1930002 0.732407904,17.6936379 C0.430336119,17.1942755 0.422212432,16.5767207 0.711049596,16.07 L9.12033697,1.34272727 C9.41663726,0.822913287 9.97935189,0.500305656 10.5902804,0.5 L72.819007,0.5 C73.4145473,0.500297873 73.9655203,0.806999759 74.2675921,1.30636213 C74.5696639,1.8057245 74.5777876,2.42327929 74.2889504,2.93 L65.879663,17.6572727 C65.5833627,18.1770867 65.0206481,18.4996943 64.4097196,18.5 Z" id="Path" fill="#58C655"></path><path d="M64.4097196,42.5 L2.18099303,42.5 C1.58545273,42.4997021 1.03447969,42.1930002 0.732407904,41.6936379 C0.430336119,41.1942755 0.422212432,40.5767207 0.711049596,40.07 L9.12033697,25.3427273 C9.41663726,24.8229133 9.97935189,24.5003057 10.5902804,24.5 L72.819007,24.5 C73.4145473,24.5002979 73.9655203,24.8069998 74.2675921,25.3063621 C74.5696639,25.8057245 74.5777876,26.4232793 74.2889504,26.93 L65.879663,41.6572727 C65.5833627,42.1770867 65.0206481,42.4996943 64.4097196,42.5 L64.4097196,42.5 Z" id="Path" fill="#F6C32E"></path><path d="M64.4097196,66.5 L2.18099303,66.5 C1.58545273,66.4997021 1.03447969,66.1930002 0.732407904,65.6936379 C0.430336119,65.1942755 0.422212432,64.5767207 0.711049596,64.07 L9.12033697,49.3427273 C9.41663726,48.8229133 9.97935189,48.5003057 10.5902804,48.5 L72.819007,48.5 C73.4145473,48.5002979 73.9655203,48.8069998 74.2675921,49.3063621 C74.5696639,49.8057245 74.5777876,50.4232793 74.2889504,50.93 L65.879663,65.6572727 C65.5833627,66.1770867 65.0206481,66.4996943 64.4097196,66.5 Z" id="Path" fill="#5B5EDE"></path></g></g></g></g></svg>