<svg xmlns="http://www.w3.org/2000/svg" xmlns:xlink="http://www.w3.org/1999/xlink" width="307px" height="78px" viewBox="0 0 307 78"><title>7</title><g id="Page-1" stroke="none" stroke-width="1" fill="none" fill-rule="evenodd"><g id="4" transform="translate(-19.000000, -17.000000)"><g id="7" transform="translate(19.000000, 17.000000)"><path d="M97.8125,49 L97.8125,26.7109375 L113.773438,49 L122.5625,49 L109.097656,31.1054688 C111.816406,30.7304688 113.996094,30.1328125 115.636719,29.3125 C117.277344,28.4921875 118.695312,27.3085938 119.890625,25.7617188 C121.882812,23.2070312 122.878906,20.0664062 122.878906,16.3398438 C122.878906,11.5820312 121.414062,7.80859375 118.484375,5.01953125 C115.648438,2.34765625 111.382812,1.01171875 105.6875,1.01171875 L105.6875,1.01171875 L90.8164062,1.01171875 L90.8164062,49 L97.8125,49 Z M102.628906,25.7617188 L97.8125,25.7617188 L97.8125,7.4453125 L105.230469,7.4453125 C108.441406,7.4453125 111.019531,8.25976562 112.964844,9.88867188 C114.910156,11.5175781 115.882812,13.6796875 115.882812,16.375 C115.882812,19.75 114.464844,22.2578125 111.628906,23.8984375 C109.496094,25.140625 106.496094,25.7617188 102.628906,25.7617188 L102.628906,25.7617188 Z M147.292969,49.9492188 C152.425781,49.9492188 156.808594,48.2617188 160.441406,44.8867188 C162.363281,43.1054688 163.886719,40.9726562 165.011719,38.4882812 C166.136719,36.0039062 166.699219,33.53125 166.699219,31.0703125 C166.699219,25.28125 164.519531,20.5117188 160.160156,16.7617188 C156.503906,13.6210938 152.203125,12.0507812 147.257812,12.0507812 C144,12.0976562 140.982422,12.8300781 138.205078,14.2480469 C135.427734,15.6660156 133.148438,17.6289062 131.367188,20.1367188 C129.070312,23.3710938 127.921875,26.921875 127.921875,30.7890625 C127.921875,33.6484375 128.589844,36.4257812 129.925781,39.1210938 C131.003906,41.3242188 132.421875,43.2460938 134.179688,44.8867188 C137.8125,48.2617188 142.183594,49.9492188 147.292969,49.9492188 Z M147.292969,43.796875 C143.917969,43.796875 141.023438,42.6367188 138.609375,40.3164062 C135.960938,37.7382812 134.636719,34.6210938 134.636719,30.9648438 C134.636719,27.3085938 135.960938,24.2148438 138.609375,21.6835938 C141.023438,19.3632812 143.917969,18.203125 147.292969,18.203125 C150.667969,18.25 153.585938,19.4101562 156.046875,21.6835938 C158.671875,24.1445312 159.984375,27.2851562 159.984375,31.1054688 C159.984375,32.7695312 159.626953,34.421875 158.912109,36.0625 C158.197266,37.703125 157.230469,39.1210938 156.011719,40.3164062 C153.597656,42.6367188 150.691406,43.796875 147.292969,43.796875 Z M190.691406,49.9492188 C195.261719,49.9492188 199.222656,48.5429688 202.574219,45.7304688 C205.292969,43.4335938 207.238281,40.5742188 208.410156,37.1523438 L208.410156,37.1523438 L200.921875,37.1523438 C199.9375,39.1914062 198.507812,40.8085938 196.632812,42.0039062 C194.757812,43.1992188 192.730469,43.796875 190.550781,43.796875 C187.152344,43.796875 184.351562,42.4257812 182.148438,39.6835938 C180.0625,37.0820312 179.019531,34.1640625 179.019531,30.9296875 C179.019531,28 179.851562,25.3046875 181.515625,22.84375 C183.648438,19.75 186.753906,18.203125 190.832031,18.203125 C193.105469,18.203125 195.021484,18.7246094 196.580078,19.7675781 C198.138672,20.8105469 199.585938,22.5507812 200.921875,24.9882812 L200.921875,24.9882812 L208.410156,24.9882812 C207.917969,23.0429688 207.085938,21.2851562 205.914062,19.7148438 C202.023438,14.6054688 196.984375,12.0507812 190.796875,12.0507812 C185.359375,12.0507812 180.847656,14.03125 177.261719,17.9921875 C173.957031,21.625 172.304688,25.9375 172.304688,30.9296875 C172.304688,36.25 174.109375,40.7851562 177.71875,44.5351562 C181.164062,48.1445312 185.488281,49.9492188 190.691406,49.9492188 Z M222.207031,30.4023438 L236.761719,49 L245.164062,49 L230.082031,29.9804688 L243.125,13 L235.144531,13 L222.207031,30.4023438 Z M222.207031,30.4023438 L222.207031,1.01171875 L215.492188,1.01171875 L215.492188,49 L222.207031,49 L222.207031,30.4023438 Z M265.113281,49.9492188 C270.269531,49.9492188 274.664062,48.0859375 278.296875,44.359375 C280.054688,42.5546875 281.414062,40.3398438 282.375,37.7148438 L282.375,37.7148438 L275.589844,37.7148438 C274.441406,39.6835938 272.994141,41.1894531 271.248047,42.2324219 C269.501953,43.2753906 267.5625,43.796875 265.429688,43.796875 C261.84375,43.796875 258.820312,42.3789062 256.359375,39.5429688 C255.046875,38.0429688 254.121094,36.1679688 253.582031,33.9179688 L253.582031,33.9179688 L283.324219,33.9179688 C283.464844,32.3945312 283.535156,31.2460938 283.535156,30.4726562 C283.535156,27.4257812 282.855469,24.5722656 281.496094,21.9121094 C280.136719,19.2519531 278.226562,17.0195312 275.765625,15.2148438 C272.625,12.9414062 269.132812,11.8046875 265.289062,11.8046875 C262.6875,11.8046875 260.167969,12.3554688 257.730469,13.4570312 C254.238281,15.0507812 251.519531,17.4882812 249.574219,20.7695312 C247.722656,23.9335938 246.796875,27.3203125 246.796875,30.9296875 C246.796875,36.25 248.671875,40.796875 252.421875,44.5703125 C255.984375,48.15625 260.214844,49.9492188 265.113281,49.9492188 Z M276.855469,28.75 L253.546875,28.75 C253.804688,27.015625 254.132812,25.6679688 254.53125,24.7070312 C254.929688,23.7460938 255.550781,22.796875 256.394531,21.859375 C258.738281,19.2578125 261.679688,17.9570312 265.21875,17.9570312 C269.273438,17.9570312 272.496094,19.7148438 274.886719,23.2304688 C276.082031,24.9648438 276.738281,26.8046875 276.855469,28.75 L276.855469,28.75 Z M297.824219,49 L297.824219,29.3125 C297.753906,22.796875 300.695312,19.3632812 306.648438,19.0117188 L306.648438,19.0117188 L306.648438,12.0507812 C302.59375,12.0742188 299.488281,13.46875 297.332031,16.234375 L297.332031,16.234375 L297.332031,13 L291.109375,13 L291.109375,49 L297.824219,49 Z" id="Rocker" fill="#2D313C" fill-rule="nonzero"></path><path d="M96.38,75 C97.064,75 97.688,74.922 98.252,74.766 C98.816,74.61 99.299,74.385 99.701,74.091 C100.103,73.797 100.412,73.434 100.628,73.002 C100.844,72.57 100.952,72.084 100.952,71.544 C100.952,71.112 100.88,70.728 100.736,70.392 C100.592,70.056 100.4,69.768 100.16,69.528 C99.92,69.288 99.635,69.081 99.305,68.907 C98.975,68.733 98.624,68.592 98.252,68.484 C98.504,68.376 98.747,68.241 98.981,68.079 C99.215,67.917 99.428,67.716 99.62,67.476 C99.812,67.236 99.965,66.96 100.079,66.648 C100.193,66.336 100.25,65.97 100.25,65.55 C100.25,65.07 100.154,64.635 99.962,64.245 C99.77,63.855 99.494,63.525 99.134,63.255 C98.774,62.985 98.342,62.775 97.838,62.625 C97.334,62.475 96.77,62.4 96.146,62.4 L90.782,62.4 L90.782,75 L96.38,75 Z M95.912,68.016 L92.186,68.016 L92.186,63.678 L96.02,63.678 C96.92,63.678 97.61,63.864 98.09,64.236 C98.57,64.608 98.81,65.112 98.81,65.748 C98.81,66.492 98.54,67.056 98,67.44 C97.46,67.824 96.764,68.016 95.912,68.016 Z M96.416,73.722 L92.186,73.722 L92.186,69.276 L96.164,69.276 C97.268,69.276 98.102,69.465 98.666,69.843 C99.23,70.221 99.512,70.758 99.512,71.454 C99.512,72.174 99.236,72.732 98.684,73.128 C98.132,73.524 97.376,73.722 96.416,73.722 Z M106.964,75.198 C107.768,75.198 108.422,75.021 108.926,74.667 C109.43,74.313 109.838,73.884 110.15,73.38 L110.15,75 L111.518,75 L111.518,65.694 L110.15,65.694 L110.15,71.022 C110.15,71.454 110.078,71.85 109.934,72.21 C109.79,72.57 109.595,72.879 109.349,73.137 C109.103,73.395 108.809,73.593 108.467,73.731 C108.125,73.869 107.756,73.938 107.36,73.938 C106.532,73.938 105.896,73.686 105.452,73.182 C105.008,72.678 104.786,71.994 104.786,71.13 L104.786,65.694 L103.4,65.694 L103.4,71.472 C103.4,72.024 103.481,72.528 103.643,72.984 C103.805,73.44 104.039,73.833 104.345,74.163 C104.651,74.493 105.023,74.748 105.461,74.928 C105.899,75.108 106.4,75.198 106.964,75.198 Z M116.252,63.66 L116.252,62.13 L114.668,62.13 L114.668,63.66 L116.252,63.66 Z M116.144,75 L116.144,65.694 L114.758,65.694 L114.758,75 L116.144,75 Z M120.878,75 L120.878,61.86 L119.492,61.86 L119.492,75 L120.878,75 Z M128.006,75.198 C128.438,75.198 128.831,75.144 129.185,75.036 C129.539,74.928 129.86,74.778 130.148,74.586 C130.436,74.394 130.697,74.172 130.931,73.92 C131.165,73.668 131.378,73.404 131.57,73.128 L131.57,75 L132.956,75 L132.956,61.86 L131.57,61.86 L131.57,67.476 C131.39,67.212 131.183,66.96 130.949,66.72 C130.715,66.48 130.454,66.27 130.166,66.09 C129.878,65.91 129.554,65.766 129.194,65.658 C128.834,65.55 128.438,65.496 128.006,65.496 C127.442,65.496 126.896,65.607 126.368,65.829 C125.84,66.051 125.366,66.369 124.946,66.783 C124.526,67.197 124.19,67.704 123.938,68.304 C123.686,68.904 123.56,69.588 123.56,70.356 C123.56,71.124 123.686,71.808 123.938,72.408 C124.19,73.008 124.526,73.515 124.946,73.929 C125.366,74.343 125.84,74.658 126.368,74.874 C126.896,75.09 127.442,75.198 128.006,75.198 Z M128.258,73.956 C127.814,73.956 127.394,73.872 126.998,73.704 C126.602,73.536 126.254,73.293 125.954,72.975 C125.654,72.657 125.417,72.276 125.243,71.832 C125.069,71.388 124.982,70.89 124.982,70.338 C124.982,69.774 125.069,69.267 125.243,68.817 C125.417,68.367 125.651,67.989 125.945,67.683 C126.239,67.377 126.584,67.143 126.98,66.981 C127.376,66.819 127.802,66.738 128.258,66.738 C128.69,66.738 129.107,66.825 129.509,66.999 C129.911,67.173 130.271,67.416 130.589,67.728 C130.907,68.04 131.159,68.418 131.345,68.862 C131.531,69.306 131.624,69.798 131.624,70.338 C131.624,70.878 131.531,71.373 131.345,71.823 C131.159,72.273 130.907,72.654 130.589,72.966 C130.271,73.278 129.911,73.521 129.509,73.695 C129.107,73.869 128.69,73.956 128.258,73.956 Z M142.892,77.934 C143.588,77.934 144.179,77.736 144.665,77.34 C145.151,76.944 145.592,76.266 145.988,75.306 L149.894,65.694 L148.418,65.694 L145.43,73.452 L142.046,65.694 L140.516,65.694 L144.746,74.964 C144.47,75.624 144.188,76.08 143.9,76.332 C143.612,76.584 143.258,76.71 142.838,76.71 C142.538,76.71 142.277,76.683 142.055,76.629 C141.833,76.575 141.608,76.488 141.38,76.368 L140.912,77.466 C141.224,77.622 141.536,77.739 141.848,77.817 C142.16,77.895 142.508,77.934 142.892,77.934 Z M156.338,75.216 C157.034,75.216 157.682,75.087 158.282,74.829 C158.882,74.571 159.398,74.22 159.83,73.776 C160.262,73.332 160.601,72.813 160.847,72.219 C161.093,71.625 161.216,70.998 161.216,70.338 C161.216,69.678 161.096,69.054 160.856,68.466 C160.616,67.878 160.28,67.365 159.848,66.927 C159.416,66.489 158.903,66.141 158.309,65.883 C157.715,65.625 157.07,65.496 156.374,65.496 C155.666,65.496 155.015,65.625 154.421,65.883 C153.827,66.141 153.314,66.492 152.882,66.936 C152.45,67.38 152.114,67.899 151.874,68.493 C151.634,69.087 151.514,69.714 151.514,70.374 C151.514,71.034 151.634,71.658 151.874,72.246 C152.114,72.834 152.45,73.347 152.882,73.785 C153.314,74.223 153.824,74.571 154.412,74.829 C155,75.087 155.642,75.216 156.338,75.216 Z M156.374,73.974 C155.882,73.974 155.426,73.878 155.006,73.686 C154.586,73.494 154.223,73.236 153.917,72.912 C153.611,72.588 153.371,72.204 153.197,71.76 C153.023,71.316 152.936,70.842 152.936,70.338 C152.936,69.834 153.02,69.363 153.188,68.925 C153.356,68.487 153.587,68.103 153.881,67.773 C154.175,67.443 154.532,67.185 154.952,66.999 C155.372,66.813 155.834,66.72 156.338,66.72 C156.83,66.72 157.286,66.816 157.706,67.008 C158.126,67.2 158.492,67.461 158.804,67.791 C159.116,68.121 159.359,68.508 159.533,68.952 C159.707,69.396 159.794,69.87 159.794,70.374 C159.794,70.878 159.71,71.349 159.542,71.787 C159.374,72.225 159.14,72.606 158.84,72.93 C158.54,73.254 158.18,73.509 157.76,73.695 C157.34,73.881 156.878,73.974 156.374,73.974 Z M167.138,75.198 C167.942,75.198 168.596,75.021 169.1,74.667 C169.604,74.313 170.012,73.884 170.324,73.38 L170.324,75 L171.692,75 L171.692,65.694 L170.324,65.694 L170.324,71.022 C170.324,71.454 170.252,71.85 170.108,72.21 C169.964,72.57 169.769,72.879 169.523,73.137 C169.277,73.395 168.983,73.593 168.641,73.731 C168.299,73.869 167.93,73.938 167.534,73.938 C166.706,73.938 166.07,73.686 165.626,73.182 C165.182,72.678 164.96,71.994 164.96,71.13 L164.96,65.694 L163.574,65.694 L163.574,71.472 C163.574,72.024 163.655,72.528 163.817,72.984 C163.979,73.44 164.213,73.833 164.519,74.163 C164.825,74.493 165.197,74.748 165.635,74.928 C166.073,75.108 166.574,75.198 167.138,75.198 Z M176.192,75 L176.192,71.292 C176.192,70.596 176.288,69.981 176.48,69.447 C176.672,68.913 176.936,68.466 177.272,68.106 C177.608,67.746 178.001,67.476 178.451,67.296 C178.901,67.116 179.378,67.026 179.882,67.026 L179.99,67.026 L179.99,65.532 C179.546,65.52 179.132,65.574 178.748,65.694 C178.364,65.814 178.01,65.991 177.686,66.225 C177.362,66.459 177.074,66.738 176.822,67.062 C176.57,67.386 176.36,67.74 176.192,68.124 L176.192,65.694 L174.806,65.694 L174.806,75 L176.192,75 Z M191.402,75.198 C191.834,75.198 192.227,75.144 192.581,75.036 C192.935,74.928 193.256,74.778 193.544,74.586 C193.832,74.394 194.093,74.172 194.327,73.92 C194.561,73.668 194.774,73.404 194.966,73.128 L194.966,75 L196.352,75 L196.352,61.86 L194.966,61.86 L194.966,67.476 C194.786,67.212 194.579,66.96 194.345,66.72 C194.111,66.48 193.85,66.27 193.562,66.09 C193.274,65.91 192.95,65.766 192.59,65.658 C192.23,65.55 191.834,65.496 191.402,65.496 C190.838,65.496 190.292,65.607 189.764,65.829 C189.236,66.051 188.762,66.369 188.342,66.783 C187.922,67.197 187.586,67.704 187.334,68.304 C187.082,68.904 186.956,69.588 186.956,70.356 C186.956,71.124 187.082,71.808 187.334,72.408 C187.586,73.008 187.922,73.515 188.342,73.929 C188.762,74.343 189.236,74.658 189.764,74.874 C190.292,75.09 190.838,75.198 191.402,75.198 Z M191.654,73.956 C191.21,73.956 190.79,73.872 190.394,73.704 C189.998,73.536 189.65,73.293 189.35,72.975 C189.05,72.657 188.813,72.276 188.639,71.832 C188.465,71.388 188.378,70.89 188.378,70.338 C188.378,69.774 188.465,69.267 188.639,68.817 C188.813,68.367 189.047,67.989 189.341,67.683 C189.635,67.377 189.98,67.143 190.376,66.981 C190.772,66.819 191.198,66.738 191.654,66.738 C192.086,66.738 192.503,66.825 192.905,66.999 C193.307,67.173 193.667,67.416 193.985,67.728 C194.303,68.04 194.555,68.418 194.741,68.862 C194.927,69.306 195.02,69.798 195.02,70.338 C195.02,70.878 194.927,71.373 194.741,71.823 C194.555,72.273 194.303,72.654 193.985,72.966 C193.667,73.278 193.307,73.521 192.905,73.695 C192.503,73.869 192.086,73.956 191.654,73.956 Z M200.834,75 L200.834,71.292 C200.834,70.596 200.93,69.981 201.122,69.447 C201.314,68.913 201.578,68.466 201.914,68.106 C202.25,67.746 202.643,67.476 203.093,67.296 C203.543,67.116 204.02,67.026 204.524,67.026 L204.632,67.026 L204.632,65.532 C204.188,65.52 203.774,65.574 203.39,65.694 C203.006,65.814 202.652,65.991 202.328,66.225 C202.004,66.459 201.716,66.738 201.464,67.062 C201.212,67.386 201.002,67.74 200.834,68.124 L200.834,65.694 L199.448,65.694 L199.448,75 L200.834,75 Z M210.806,75.216 C211.694,75.216 212.438,75.057 213.038,74.739 C213.638,74.421 214.172,73.998 214.64,73.47 L213.776,72.696 C213.392,73.092 212.969,73.41 212.507,73.65 C212.045,73.89 211.49,74.01 210.842,74.01 C210.434,74.01 210.044,73.941 209.672,73.803 C209.3,73.665 208.964,73.461 208.664,73.191 C208.364,72.921 208.118,72.591 207.926,72.201 C207.734,71.811 207.614,71.364 207.566,70.86 L214.946,70.86 C214.958,70.776 214.964,70.698 214.964,70.626 L214.964,70.428 L214.964,70.428 C214.964,69.744 214.868,69.102 214.676,68.502 C214.484,67.902 214.202,67.38 213.83,66.936 C213.458,66.492 213.002,66.141 212.462,65.883 C211.922,65.625 211.31,65.496 210.626,65.496 C209.978,65.496 209.381,65.622 208.835,65.874 C208.289,66.126 207.818,66.471 207.422,66.909 C207.026,67.347 206.717,67.863 206.495,68.457 C206.273,69.051 206.162,69.684 206.162,70.356 C206.162,71.076 206.285,71.736 206.531,72.336 C206.777,72.936 207.11,73.449 207.53,73.875 C207.95,74.301 208.442,74.631 209.006,74.865 C209.57,75.099 210.17,75.216 210.806,75.216 Z M213.56,69.834 L207.566,69.834 C207.614,69.378 207.722,68.958 207.89,68.574 C208.058,68.19 208.274,67.857 208.538,67.575 C208.802,67.293 209.108,67.071 209.456,66.909 C209.804,66.747 210.182,66.666 210.59,66.666 C211.058,66.666 211.469,66.753 211.823,66.927 C212.177,67.101 212.477,67.332 212.723,67.62 C212.969,67.908 213.161,68.244 213.299,68.628 C213.437,69.012 213.524,69.414 213.56,69.834 Z M220.166,75.198 C220.994,75.198 221.681,75.036 222.227,74.712 C222.773,74.388 223.208,74.016 223.532,73.596 L223.532,75 L224.864,75 L224.864,69.312 C224.864,68.076 224.522,67.143 223.838,66.513 C223.154,65.883 222.176,65.568 220.904,65.568 C220.22,65.568 219.614,65.637 219.086,65.775 C218.558,65.913 218.036,66.102 217.52,66.342 L217.934,67.476 C218.366,67.272 218.807,67.107 219.257,66.981 C219.707,66.855 220.208,66.792 220.76,66.792 C221.636,66.792 222.317,67.005 222.803,67.431 C223.289,67.857 223.532,68.49 223.532,69.33 L223.532,69.654 C223.112,69.534 222.68,69.438 222.236,69.366 C221.792,69.294 221.27,69.258 220.67,69.258 C220.082,69.258 219.545,69.324 219.059,69.456 C218.573,69.588 218.153,69.78 217.799,70.032 C217.445,70.284 217.172,70.599 216.98,70.977 C216.788,71.355 216.692,71.79 216.692,72.282 C216.692,72.774 216.791,73.2 216.989,73.56 C217.187,73.92 217.451,74.223 217.781,74.469 C218.111,74.715 218.483,74.898 218.897,75.018 C219.311,75.138 219.734,75.198 220.166,75.198 Z M220.436,74.1 C220.124,74.1 219.827,74.058 219.545,73.974 C219.263,73.89 219.014,73.767 218.798,73.605 C218.582,73.443 218.411,73.248 218.285,73.02 C218.159,72.792 218.096,72.528 218.096,72.228 C218.096,71.628 218.33,71.154 218.798,70.806 C219.266,70.458 219.938,70.284 220.814,70.284 C221.39,70.284 221.903,70.326 222.353,70.41 C222.803,70.494 223.202,70.584 223.55,70.68 L223.55,71.58 C223.55,71.952 223.469,72.291 223.307,72.597 C223.145,72.903 222.923,73.167 222.641,73.389 C222.359,73.611 222.029,73.785 221.651,73.911 C221.273,74.037 220.868,74.1 220.436,74.1 Z M229.202,75 L229.202,69.69 C229.202,69.258 229.268,68.865 229.4,68.511 C229.532,68.157 229.715,67.848 229.949,67.584 C230.183,67.32 230.456,67.116 230.768,66.972 C231.08,66.828 231.422,66.756 231.794,66.756 C232.538,66.756 233.123,66.999 233.549,67.485 C233.975,67.971 234.188,68.652 234.188,69.528 L234.188,75 L235.556,75 L235.556,69.636 C235.556,69.18 235.625,68.772 235.763,68.412 C235.901,68.052 236.087,67.749 236.321,67.503 C236.555,67.257 236.828,67.071 237.14,66.945 C237.452,66.819 237.782,66.756 238.13,66.756 C238.886,66.756 239.477,66.999 239.903,67.485 C240.329,67.971 240.542,68.664 240.542,69.564 L240.542,75 L241.928,75 L241.928,69.24 C241.928,68.076 241.622,67.161 241.01,66.495 C240.398,65.829 239.552,65.496 238.472,65.496 C238.064,65.496 237.695,65.544 237.365,65.64 C237.035,65.736 236.738,65.868 236.474,66.036 C236.21,66.204 235.973,66.402 235.763,66.63 C235.553,66.858 235.364,67.098 235.196,67.35 C234.944,66.822 234.572,66.381 234.08,66.027 C233.588,65.673 232.964,65.496 232.208,65.496 C231.812,65.496 231.464,65.544 231.164,65.64 C230.864,65.736 230.594,65.865 230.354,66.027 C230.114,66.189 229.901,66.378 229.715,66.594 C229.529,66.81 229.358,67.032 229.202,67.26 L229.202,65.694 L227.816,65.694 L227.816,75 L229.202,75 Z M251.72,75 L251.72,69.672 C251.72,69.24 251.789,68.844 251.927,68.484 C252.065,68.124 252.26,67.815 252.512,67.557 C252.764,67.299 253.061,67.101 253.403,66.963 C253.745,66.825 254.114,66.756 254.51,66.756 C255.338,66.756 255.974,67.008 256.418,67.512 C256.862,68.016 257.084,68.7 257.084,69.564 L257.084,75 L258.47,75 L258.47,69.222 C258.47,68.67 258.389,68.166 258.227,67.71 C258.065,67.254 257.831,66.861 257.525,66.531 C257.219,66.201 256.847,65.946 256.409,65.766 C255.971,65.586 255.47,65.496 254.906,65.496 C254.102,65.496 253.448,65.673 252.944,66.027 C252.44,66.381 252.032,66.81 251.72,67.314 L251.72,61.86 L250.334,61.86 L250.334,75 L251.72,75 Z M265.67,75.216 C266.366,75.216 267.014,75.087 267.614,74.829 C268.214,74.571 268.73,74.22 269.162,73.776 C269.594,73.332 269.933,72.813 270.179,72.219 C270.425,71.625 270.548,70.998 270.548,70.338 C270.548,69.678 270.428,69.054 270.188,68.466 C269.948,67.878 269.612,67.365 269.18,66.927 C268.748,66.489 268.235,66.141 267.641,65.883 C267.047,65.625 266.402,65.496 265.706,65.496 C264.998,65.496 264.347,65.625 263.753,65.883 C263.159,66.141 262.646,66.492 262.214,66.936 C261.782,67.38 261.446,67.899 261.206,68.493 C260.966,69.087 260.846,69.714 260.846,70.374 C260.846,71.034 260.966,71.658 261.206,72.246 C261.446,72.834 261.782,73.347 262.214,73.785 C262.646,74.223 263.156,74.571 263.744,74.829 C264.332,75.087 264.974,75.216 265.67,75.216 Z M265.706,73.974 C265.214,73.974 264.758,73.878 264.338,73.686 C263.918,73.494 263.555,73.236 263.249,72.912 C262.943,72.588 262.703,72.204 262.529,71.76 C262.355,71.316 262.268,70.842 262.268,70.338 C262.268,69.834 262.352,69.363 262.52,68.925 C262.688,68.487 262.919,68.103 263.213,67.773 C263.507,67.443 263.864,67.185 264.284,66.999 C264.704,66.813 265.166,66.72 265.67,66.72 C266.162,66.72 266.618,66.816 267.038,67.008 C267.458,67.2 267.824,67.461 268.136,67.791 C268.448,68.121 268.691,68.508 268.865,68.952 C269.039,69.396 269.126,69.87 269.126,70.374 C269.126,70.878 269.042,71.349 268.874,71.787 C268.706,72.225 268.472,72.606 268.172,72.93 C267.872,73.254 267.512,73.509 267.092,73.695 C266.672,73.881 266.21,73.974 265.706,73.974 Z M274.436,75 L274.436,69.69 C274.436,69.258 274.502,68.865 274.634,68.511 C274.766,68.157 274.949,67.848 275.183,67.584 C275.417,67.32 275.69,67.116 276.002,66.972 C276.314,66.828 276.656,66.756 277.028,66.756 C277.772,66.756 278.357,66.999 278.783,67.485 C279.209,67.971 279.422,68.652 279.422,69.528 L279.422,75 L280.79,75 L280.79,69.636 C280.79,69.18 280.859,68.772 280.997,68.412 C281.135,68.052 281.321,67.749 281.555,67.503 C281.789,67.257 282.062,67.071 282.374,66.945 C282.686,66.819 283.016,66.756 283.364,66.756 C284.12,66.756 284.711,66.999 285.137,67.485 C285.563,67.971 285.776,68.664 285.776,69.564 L285.776,75 L287.162,75 L287.162,69.24 C287.162,68.076 286.856,67.161 286.244,66.495 C285.632,65.829 284.786,65.496 283.706,65.496 C283.298,65.496 282.929,65.544 282.599,65.64 C282.269,65.736 281.972,65.868 281.708,66.036 C281.444,66.204 281.207,66.402 280.997,66.63 C280.787,66.858 280.598,67.098 280.43,67.35 C280.178,66.822 279.806,66.381 279.314,66.027 C278.822,65.673 278.198,65.496 277.442,65.496 C277.046,65.496 276.698,65.544 276.398,65.64 C276.098,65.736 275.828,65.865 275.588,66.027 C275.348,66.189 275.135,66.378 274.949,66.594 C274.763,66.81 274.592,67.032 274.436,67.26 L274.436,65.694 L273.05,65.694 L273.05,75 L274.436,75 Z M294.236,75.216 C295.124,75.216 295.868,75.057 296.468,74.739 C297.068,74.421 297.602,73.998 298.07,73.47 L297.206,72.696 C296.822,73.092 296.399,73.41 295.937,73.65 C295.475,73.89 294.92,74.01 294.272,74.01 C293.864,74.01 293.474,73.941 293.102,73.803 C292.73,73.665 292.394,73.461 292.094,73.191 C291.794,72.921 291.548,72.591 291.356,72.201 C291.164,71.811 291.044,71.364 290.996,70.86 L298.376,70.86 C298.388,70.776 298.394,70.698 298.394,70.626 L298.394,70.428 L298.394,70.428 C298.394,69.744 298.298,69.102 298.106,68.502 C297.914,67.902 297.632,67.38 297.26,66.936 C296.888,66.492 296.432,66.141 295.892,65.883 C295.352,65.625 294.74,65.496 294.056,65.496 C293.408,65.496 292.811,65.622 292.265,65.874 C291.719,66.126 291.248,66.471 290.852,66.909 C290.456,67.347 290.147,67.863 289.925,68.457 C289.703,69.051 289.592,69.684 289.592,70.356 C289.592,71.076 289.715,71.736 289.961,72.336 C290.207,72.936 290.54,73.449 290.96,73.875 C291.38,74.301 291.872,74.631 292.436,74.865 C293,75.099 293.6,75.216 294.236,75.216 Z M296.99,69.834 L290.996,69.834 C291.044,69.378 291.152,68.958 291.32,68.574 C291.488,68.19 291.704,67.857 291.968,67.575 C292.232,67.293 292.538,67.071 292.886,66.909 C293.234,66.747 293.612,66.666 294.02,66.666 C294.488,66.666 294.899,66.753 295.253,66.927 C295.607,67.101 295.907,67.332 296.153,67.62 C296.399,67.908 296.591,68.244 296.729,68.628 C296.867,69.012 296.954,69.414 296.99,69.834 Z" id="Buildyourdreamhome" fill="#061E5C" fill-rule="nonzero" opacity="0.8"></path><path d="M34,42 L34,45.9881643 L0,78 L0,74.0118357 L34,42 Z M35,42 L69,74.0117852 L69,78 L35,45.9882148 L35,42 Z M34,31 L34,34.9877595 L0,67 L0,63.0122405 L34,31 Z M35,31 L69,63.0122405 L69,67 L35,34.9882148 L35,31 Z M34,21 L34,24.9882148 L0,57 L0,53.0122405 L34,21 Z M35,21 L69,53.01219 L69,57 L35,24.9882652 L35,21 Z M34,11 L34,14.98781 L0,47 L0,43.01219 L34,11 Z M35,11 L69,43.01219 L69,47 L35,14.9882652 L35,11 Z M34,0 L34,3.98821476 L0,36 L0,32.0117852 L34,0 Z M35,0 L69,32.0117348 L69,36 L35,3.9882652 L35,0 Z" id="Icon" fill="#1397BA"></path></g></g></g></svg>