<svg xmlns="http://www.w3.org/2000/svg" xmlns:xlink="http://www.w3.org/1999/xlink" width="273px" height="82px" viewBox="0 0 273 82"><title>8</title><g id="Page-1" stroke="none" stroke-width="1" fill="none" fill-rule="evenodd"><g id="3" transform="translate(-25.000000, -16.000000)"><g id="8" transform="translate(25.000000, 16.000000)"><path d="M94.2700195,52 L94.2700195,32.8515625 L98.6953125,32.8515625 C102.016602,32.8515625 104.846191,31.6640625 107.184082,29.2890625 C109.521973,26.9140625 110.690918,24.0566406 110.690918,20.7167969 L110.690918,20.7167969 L110.690918,13.3413086 C110.690918,9.87158203 109.661133,7.01416016 107.601562,4.76904297 C105.393555,2.41259766 102.424805,1.234375 98.6953125,1.234375 L98.6953125,1.234375 L86.644043,1.234375 L86.644043,52 L94.2700195,52 Z M98.8901367,25.28125 L94.2700195,25.28125 L94.2700195,9.05517578 L98.8901367,9.05517578 C100.226074,9.05517578 101.28833,9.45874023 102.076904,10.2658691 C102.865479,11.072998 103.259766,12.1445312 103.259766,13.4804688 L103.259766,13.4804688 L103.259766,20.8837891 C103.259766,22.0898438 102.837646,23.1242676 101.993408,23.9870605 C101.14917,24.8498535 100.114746,25.28125 98.8901367,25.28125 L98.8901367,25.28125 Z M122.847656,52 L124.712402,40.3383789 L132.700195,40.3383789 L134.509277,52 L142.524902,52 L134.036133,1.234375 L123.487793,1.234375 L114.887695,52 L122.847656,52 Z M131.559082,32.8793945 L125.881348,32.8793945 L128.720215,12.8681641 L131.559082,32.8793945 Z M159.60791,52 L159.60791,32.8515625 L164.033203,32.8515625 C167.354492,32.8515625 170.184082,31.6640625 172.521973,29.2890625 C174.859863,26.9140625 176.028809,24.0566406 176.028809,20.7167969 L176.028809,20.7167969 L176.028809,13.3413086 C176.028809,9.87158203 174.999023,7.01416016 172.939453,4.76904297 C170.731445,2.41259766 167.762695,1.234375 164.033203,1.234375 L164.033203,1.234375 L151.981934,1.234375 L151.981934,52 L159.60791,52 Z M164.228027,25.28125 L159.60791,25.28125 L159.60791,9.05517578 L164.228027,9.05517578 C165.563965,9.05517578 166.626221,9.45874023 167.414795,10.2658691 C168.203369,11.072998 168.597656,12.1445312 168.597656,13.4804688 L168.597656,13.4804688 L168.597656,20.8837891 C168.597656,22.0898438 168.175537,23.1242676 167.331299,23.9870605 C166.487061,24.8498535 165.452637,25.28125 164.228027,25.28125 L164.228027,25.28125 Z M206.916504,52 L206.916504,44.3461914 L192.777832,44.3461914 L192.777832,30.4580078 L203.103516,30.4580078 L203.103516,22.7763672 L192.777832,22.7763672 L192.777832,8.88818359 L206.916504,8.88818359 L206.916504,1.234375 L185.151855,1.234375 L185.151855,52 L206.916504,52 Z M222.830566,52 L222.830566,32.8515625 L227.228027,32.8515625 C227.469238,32.8515625 227.701172,32.8422852 227.923828,32.8237305 L227.923828,32.8237305 L232.599609,52 L240.865723,52 L235.187988,29.8178711 C237.915527,27.3500977 239.279297,24.3164062 239.279297,20.7167969 L239.279297,20.7167969 L239.279297,13.3413086 C239.279297,9.68603516 238.397949,6.82861328 236.635254,4.76904297 C234.649902,2.41259766 231.523438,1.234375 227.255859,1.234375 L227.255859,1.234375 L215.20459,1.234375 L215.20459,52 L222.830566,52 Z M227.450684,25.28125 L222.830566,25.28125 L222.830566,9.05517578 L227.450684,9.05517578 C230.36377,9.05517578 231.820312,10.5302734 231.820312,13.4804688 L231.820312,13.4804688 L231.820312,20.8837891 C231.820312,22.0898438 231.398193,23.1242676 230.553955,23.9870605 C229.709717,24.8498535 228.675293,25.28125 227.450684,25.28125 L227.450684,25.28125 Z M272.310059,52 L272.310059,44.4018555 L258.227051,44.4018555 L272.310059,8.88818359 L272.310059,1.234375 L249.98877,1.234375 L249.98877,8.88818359 L264.099609,8.88818359 L249.98877,44.4018555 L249.98877,52 L272.310059,52 Z" id="paperz" fill="#2D313C" fill-rule="nonzero"></path><path d="M92.298,78 L92.298,76.884 L86.772,76.884 L86.772,65.724 L85.422,65.724 L85.422,78 L92.298,78 Z M97.392,78.288 C98.28,78.288 99.048,78.111 99.696,77.757 C100.344,77.403 100.866,76.914 101.262,76.29 L101.262,76.29 L100.29,75.642 C100.002,76.122 99.621,76.497 99.147,76.767 C98.673,77.037 98.076,77.172 97.356,77.172 C96.468,77.172 95.766,76.866 95.25,76.254 C94.734,75.642 94.452,74.904 94.404,74.04 L94.404,74.04 L101.334,74.04 C101.346,73.92 101.352,73.746 101.352,73.518 C101.352,72.726 101.178,72.009 100.83,71.367 C100.482,70.725 100.002,70.218 99.39,69.846 C98.778,69.474 98.094,69.288 97.338,69.288 C96.534,69.288 95.817,69.48 95.187,69.864 C94.557,70.248 94.065,70.782 93.711,71.466 C93.357,72.15 93.18,72.924 93.18,73.788 C93.18,74.652 93.36,75.426 93.72,76.11 C94.08,76.794 94.578,77.328 95.214,77.712 C95.85,78.096 96.576,78.288 97.392,78.288 Z M100.128,73.032 L94.476,73.032 C94.608,72.276 94.923,71.649 95.421,71.151 C95.919,70.653 96.558,70.404 97.338,70.404 C98.142,70.404 98.778,70.623 99.246,71.061 C99.714,71.499 100.008,72.156 100.128,73.032 L100.128,73.032 Z M106.824,78.288 C107.424,78.288 107.976,78.153 108.48,77.883 C108.984,77.613 109.41,77.238 109.758,76.758 L109.758,76.758 L109.758,78 L110.982,78 L110.982,69.576 L109.758,69.576 L109.758,70.836 C109.41,70.344 108.981,69.963 108.471,69.693 C107.961,69.423 107.4,69.288 106.788,69.288 C105.984,69.288 105.267,69.48 104.637,69.864 C104.007,70.248 103.515,70.779 103.161,71.457 C102.807,72.135 102.63,72.906 102.63,73.77 C102.63,74.646 102.81,75.426 103.17,76.11 C103.53,76.794 104.028,77.328 104.664,77.712 C105.3,78.096 106.02,78.288 106.824,78.288 Z M106.788,77.172 C106.224,77.172 105.72,77.028 105.276,76.74 C104.832,76.452 104.484,76.05 104.232,75.534 C103.98,75.018 103.854,74.43 103.854,73.77 C103.854,73.122 103.98,72.543 104.232,72.033 C104.484,71.523 104.832,71.124 105.276,70.836 C105.72,70.548 106.224,70.404 106.788,70.404 C107.364,70.404 107.877,70.548 108.327,70.836 C108.777,71.124 109.128,71.526 109.38,72.042 C109.632,72.558 109.758,73.14 109.758,73.788 C109.758,74.436 109.632,75.018 109.38,75.534 C109.128,76.05 108.777,76.452 108.327,76.74 C107.877,77.028 107.364,77.172 106.788,77.172 Z M116.922,78.288 C117.522,78.288 118.074,78.153 118.578,77.883 C119.082,77.613 119.508,77.238 119.856,76.758 L119.856,76.758 L119.856,78 L121.08,78 L121.08,64.932 L119.856,64.932 L119.856,70.836 C119.508,70.344 119.079,69.963 118.569,69.693 C118.059,69.423 117.498,69.288 116.886,69.288 C116.082,69.288 115.365,69.48 114.735,69.864 C114.105,70.248 113.613,70.779 113.259,71.457 C112.905,72.135 112.728,72.906 112.728,73.77 C112.728,74.646 112.908,75.426 113.268,76.11 C113.628,76.794 114.126,77.328 114.762,77.712 C115.398,78.096 116.118,78.288 116.922,78.288 Z M116.886,77.172 C116.322,77.172 115.818,77.028 115.374,76.74 C114.93,76.452 114.582,76.05 114.33,75.534 C114.078,75.018 113.952,74.43 113.952,73.77 C113.952,73.122 114.078,72.543 114.33,72.033 C114.582,71.523 114.93,71.124 115.374,70.836 C115.818,70.548 116.322,70.404 116.886,70.404 C117.462,70.404 117.975,70.548 118.425,70.836 C118.875,71.124 119.226,71.526 119.478,72.042 C119.73,72.558 119.856,73.14 119.856,73.788 C119.856,74.436 119.73,75.018 119.478,75.534 C119.226,76.05 118.875,76.452 118.425,76.74 C117.975,77.028 117.462,77.172 116.886,77.172 Z M124.626,67.938 C124.89,67.938 125.118,67.842 125.31,67.65 C125.502,67.458 125.598,67.23 125.598,66.966 C125.598,66.69 125.502,66.459 125.31,66.273 C125.118,66.087 124.89,65.994 124.626,65.994 C124.35,65.994 124.119,66.087 123.933,66.273 C123.747,66.459 123.654,66.684 123.654,66.948 C123.654,67.224 123.747,67.458 123.933,67.65 C124.119,67.842 124.35,67.938 124.626,67.938 Z M125.238,78 L125.238,69.576 L124.014,69.576 L124.014,78 L125.238,78 Z M129.396,78 L129.396,73.788 C129.396,72.756 129.612,71.934 130.044,71.322 C130.476,70.71 131.124,70.404 131.988,70.404 C133.476,70.404 134.22,71.238 134.22,72.906 L134.22,72.906 L134.22,78 L135.444,78 L135.444,72.366 C135.444,71.73 135.297,71.178 135.003,70.71 C134.709,70.242 134.313,69.888 133.815,69.648 C133.317,69.408 132.774,69.288 132.186,69.288 C131.562,69.288 131.013,69.435 130.539,69.729 C130.065,70.023 129.684,70.44 129.396,70.98 L129.396,70.98 L129.396,69.576 L128.172,69.576 L128.172,78 L129.396,78 Z M141.96,81.6 C142.68,81.6 143.322,81.432 143.886,81.096 C144.45,80.76 144.888,80.295 145.2,79.701 C145.512,79.107 145.668,78.432 145.668,77.676 L145.668,77.676 L145.668,69.576 L144.444,69.576 L144.444,70.836 C144.096,70.344 143.667,69.963 143.157,69.693 C142.647,69.423 142.086,69.288 141.474,69.288 C140.67,69.288 139.953,69.48 139.323,69.864 C138.693,70.248 138.201,70.779 137.847,71.457 C137.493,72.135 137.316,72.906 137.316,73.77 C137.316,74.646 137.496,75.426 137.856,76.11 C138.216,76.794 138.714,77.328 139.35,77.712 C139.986,78.096 140.706,78.288 141.51,78.288 C142.11,78.288 142.662,78.153 143.166,77.883 C143.67,77.613 144.096,77.238 144.444,76.758 L144.444,76.758 L144.444,77.676 C144.444,78.492 144.213,79.164 143.751,79.692 C143.289,80.22 142.692,80.484 141.96,80.484 L141.96,80.484 L138.468,80.484 L138.468,81.6 L141.96,81.6 Z M141.474,77.172 C140.91,77.172 140.406,77.028 139.962,76.74 C139.518,76.452 139.17,76.05 138.918,75.534 C138.666,75.018 138.54,74.43 138.54,73.77 C138.54,73.122 138.666,72.543 138.918,72.033 C139.17,71.523 139.518,71.124 139.962,70.836 C140.406,70.548 140.91,70.404 141.474,70.404 C142.05,70.404 142.563,70.548 143.013,70.836 C143.463,71.124 143.814,71.526 144.066,72.042 C144.318,72.558 144.444,73.14 144.444,73.788 C144.444,74.436 144.318,75.018 144.066,75.534 C143.814,76.05 143.463,76.452 143.013,76.74 C142.563,77.028 142.05,77.172 141.474,77.172 Z M153.606,78 L153.606,73.302 L156.216,73.302 C157.356,73.302 158.271,72.966 158.961,72.294 C159.651,71.622 159.996,70.698 159.996,69.522 C159.996,68.334 159.666,67.404 159.006,66.732 C158.346,66.06 157.464,65.724 156.36,65.724 L156.36,65.724 L152.256,65.724 L152.256,78 L153.606,78 Z M156.18,72.186 L153.606,72.186 L153.606,66.84 L156.18,66.84 C156.984,66.84 157.596,67.068 158.016,67.524 C158.436,67.98 158.646,68.646 158.646,69.522 C158.646,70.398 158.436,71.061 158.016,71.511 C157.596,71.961 156.984,72.186 156.18,72.186 L156.18,72.186 Z M165.252,78.288 C165.852,78.288 166.404,78.153 166.908,77.883 C167.412,77.613 167.838,77.238 168.186,76.758 L168.186,76.758 L168.186,78 L169.41,78 L169.41,69.576 L168.186,69.576 L168.186,70.836 C167.838,70.344 167.409,69.963 166.899,69.693 C166.389,69.423 165.828,69.288 165.216,69.288 C164.412,69.288 163.695,69.48 163.065,69.864 C162.435,70.248 161.943,70.779 161.589,71.457 C161.235,72.135 161.058,72.906 161.058,73.77 C161.058,74.646 161.238,75.426 161.598,76.11 C161.958,76.794 162.456,77.328 163.092,77.712 C163.728,78.096 164.448,78.288 165.252,78.288 Z M165.216,77.172 C164.652,77.172 164.148,77.028 163.704,76.74 C163.26,76.452 162.912,76.05 162.66,75.534 C162.408,75.018 162.282,74.43 162.282,73.77 C162.282,73.122 162.408,72.543 162.66,72.033 C162.912,71.523 163.26,71.124 163.704,70.836 C164.148,70.548 164.652,70.404 165.216,70.404 C165.792,70.404 166.305,70.548 166.755,70.836 C167.205,71.124 167.556,71.526 167.808,72.042 C168.06,72.558 168.186,73.14 168.186,73.788 C168.186,74.436 168.06,75.018 167.808,75.534 C167.556,76.05 167.205,76.452 166.755,76.74 C166.305,77.028 165.792,77.172 165.216,77.172 Z M172.92,81.6 L172.92,76.74 C173.268,77.232 173.697,77.613 174.207,77.883 C174.717,78.153 175.278,78.288 175.89,78.288 C176.694,78.288 177.411,78.096 178.041,77.712 C178.671,77.328 179.163,76.797 179.517,76.119 C179.871,75.441 180.048,74.67 180.048,73.806 C180.048,72.93 179.868,72.15 179.508,71.466 C179.148,70.782 178.65,70.248 178.014,69.864 C177.378,69.48 176.658,69.288 175.854,69.288 C175.254,69.288 174.702,69.423 174.198,69.693 C173.694,69.963 173.268,70.338 172.92,70.818 L172.92,70.818 L172.92,69.576 L171.696,69.576 L171.696,81.6 L172.92,81.6 Z M175.89,77.172 C175.314,77.172 174.801,77.028 174.351,76.74 C173.901,76.452 173.55,76.05 173.298,75.534 C173.046,75.018 172.92,74.436 172.92,73.788 C172.92,73.14 173.046,72.558 173.298,72.042 C173.55,71.526 173.901,71.124 174.351,70.836 C174.801,70.548 175.314,70.404 175.89,70.404 C176.454,70.404 176.958,70.548 177.402,70.836 C177.846,71.124 178.194,71.526 178.446,72.042 C178.698,72.558 178.824,73.146 178.824,73.806 C178.824,74.454 178.698,75.033 178.446,75.543 C178.194,76.053 177.846,76.452 177.402,76.74 C176.958,77.028 176.454,77.172 175.89,77.172 Z M185.466,78.288 C186.354,78.288 187.122,78.111 187.77,77.757 C188.418,77.403 188.94,76.914 189.336,76.29 L189.336,76.29 L188.364,75.642 C188.076,76.122 187.695,76.497 187.221,76.767 C186.747,77.037 186.15,77.172 185.43,77.172 C184.542,77.172 183.84,76.866 183.324,76.254 C182.808,75.642 182.526,74.904 182.478,74.04 L182.478,74.04 L189.408,74.04 C189.42,73.92 189.426,73.746 189.426,73.518 C189.426,72.726 189.252,72.009 188.904,71.367 C188.556,70.725 188.076,70.218 187.464,69.846 C186.852,69.474 186.168,69.288 185.412,69.288 C184.608,69.288 183.891,69.48 183.261,69.864 C182.631,70.248 182.139,70.782 181.785,71.466 C181.431,72.15 181.254,72.924 181.254,73.788 C181.254,74.652 181.434,75.426 181.794,76.11 C182.154,76.794 182.652,77.328 183.288,77.712 C183.924,78.096 184.65,78.288 185.466,78.288 Z M188.202,73.032 L182.55,73.032 C182.682,72.276 182.997,71.649 183.495,71.151 C183.993,70.653 184.632,70.404 185.412,70.404 C186.216,70.404 186.852,70.623 187.32,71.061 C187.788,71.499 188.082,72.156 188.202,73.032 L188.202,73.032 Z M192.45,78 L192.45,73.968 C192.45,73.224 192.585,72.579 192.855,72.033 C193.125,71.487 193.482,71.07 193.926,70.782 C194.37,70.494 194.85,70.35 195.366,70.35 C195.666,70.35 195.942,70.41 196.194,70.53 L196.194,70.53 L196.194,69.414 C195.93,69.33 195.654,69.288 195.366,69.288 C194.742,69.288 194.181,69.462 193.683,69.81 C193.185,70.158 192.774,70.644 192.45,71.268 L192.45,71.268 L192.45,69.576 L191.226,69.576 L191.226,78 L192.45,78 Z M206.202,78.288 C207.186,78.288 208.035,78.042 208.749,77.55 C209.463,77.058 210.036,76.344 210.468,75.408 L210.468,75.408 L209.334,74.724 C208.926,75.528 208.485,76.119 208.011,76.497 C207.537,76.875 206.874,77.064 206.022,77.064 C205.338,77.064 204.738,76.857 204.222,76.443 C203.706,76.029 203.31,75.432 203.034,74.652 C202.758,73.872 202.62,72.948 202.62,71.88 C202.62,70.248 202.923,68.973 203.529,68.055 C204.135,67.137 204.972,66.678 206.04,66.678 C206.784,66.678 207.414,66.831 207.93,67.137 C208.446,67.443 208.896,67.95 209.28,68.658 L209.28,68.658 L210.36,68.028 C209.952,67.212 209.385,66.579 208.659,66.129 C207.933,65.679 207.06,65.454 206.04,65.454 C205.044,65.454 204.183,65.709 203.457,66.219 C202.731,66.729 202.173,67.467 201.783,68.433 C201.393,69.399 201.198,70.554 201.198,71.898 C201.198,73.23 201.399,74.373 201.801,75.327 C202.203,76.281 202.779,77.013 203.529,77.523 C204.279,78.033 205.17,78.288 206.202,78.288 Z M215.904,78.288 C216.708,78.288 217.425,78.096 218.055,77.712 C218.685,77.328 219.177,76.794 219.531,76.11 C219.885,75.426 220.062,74.652 220.062,73.788 C220.062,72.924 219.882,72.15 219.522,71.466 C219.162,70.782 218.664,70.248 218.028,69.864 C217.392,69.48 216.672,69.288 215.868,69.288 C215.064,69.288 214.347,69.48 213.717,69.864 C213.087,70.248 212.595,70.779 212.241,71.457 C211.887,72.135 211.71,72.906 211.71,73.77 C211.71,74.634 211.89,75.411 212.25,76.101 C212.61,76.791 213.108,77.328 213.744,77.712 C214.38,78.096 215.1,78.288 215.904,78.288 Z M215.868,77.172 C215.304,77.172 214.8,77.028 214.356,76.74 C213.912,76.452 213.564,76.05 213.312,75.534 C213.06,75.018 212.934,74.43 212.934,73.77 C212.934,73.122 213.06,72.543 213.312,72.033 C213.564,71.523 213.912,71.124 214.356,70.836 C214.8,70.548 215.304,70.404 215.868,70.404 C216.444,70.404 216.957,70.548 217.407,70.836 C217.857,71.124 218.208,71.526 218.46,72.042 C218.712,72.558 218.838,73.14 218.838,73.788 C218.838,74.436 218.712,75.018 218.46,75.534 C218.208,76.05 217.857,76.452 217.407,76.74 C216.957,77.028 216.444,77.172 215.868,77.172 Z M223.014,78 L223.014,73.788 C223.014,72.756 223.197,71.934 223.563,71.322 C223.929,70.71 224.478,70.404 225.21,70.404 C225.75,70.404 226.188,70.599 226.524,70.989 C226.86,71.379 227.028,72.018 227.028,72.906 L227.028,72.906 L227.028,78 L228.252,78 L228.252,73.248 C228.312,72.372 228.525,71.679 228.891,71.169 C229.257,70.659 229.77,70.404 230.43,70.404 C230.97,70.404 231.408,70.599 231.744,70.989 C232.08,71.379 232.248,72.018 232.248,72.906 L232.248,72.906 L232.248,78 L233.472,78 L233.472,72.366 C233.472,71.406 233.214,70.653 232.698,70.107 C232.182,69.561 231.534,69.288 230.754,69.288 C230.154,69.288 229.626,69.456 229.17,69.792 C228.714,70.128 228.354,70.596 228.09,71.196 C227.91,70.584 227.592,70.113 227.136,69.783 C226.68,69.453 226.146,69.288 225.534,69.288 C224.982,69.288 224.493,69.426 224.067,69.702 C223.641,69.978 223.29,70.374 223.014,70.89 L223.014,70.89 L223.014,69.576 L221.79,69.576 L221.79,78 L223.014,78 Z M236.892,81.6 L236.892,76.74 C237.24,77.232 237.669,77.613 238.179,77.883 C238.689,78.153 239.25,78.288 239.862,78.288 C240.666,78.288 241.383,78.096 242.013,77.712 C242.643,77.328 243.135,76.797 243.489,76.119 C243.843,75.441 244.02,74.67 244.02,73.806 C244.02,72.93 243.84,72.15 243.48,71.466 C243.12,70.782 242.622,70.248 241.986,69.864 C241.35,69.48 240.63,69.288 239.826,69.288 C239.226,69.288 238.674,69.423 238.17,69.693 C237.666,69.963 237.24,70.338 236.892,70.818 L236.892,70.818 L236.892,69.576 L235.668,69.576 L235.668,81.6 L236.892,81.6 Z M239.862,77.172 C239.286,77.172 238.773,77.028 238.323,76.74 C237.873,76.452 237.522,76.05 237.27,75.534 C237.018,75.018 236.892,74.436 236.892,73.788 C236.892,73.14 237.018,72.558 237.27,72.042 C237.522,71.526 237.873,71.124 238.323,70.836 C238.773,70.548 239.286,70.404 239.862,70.404 C240.426,70.404 240.93,70.548 241.374,70.836 C241.818,71.124 242.166,71.526 242.418,72.042 C242.67,72.558 242.796,73.146 242.796,73.806 C242.796,74.454 242.67,75.033 242.418,75.543 C242.166,76.053 241.818,76.452 241.374,76.74 C240.93,77.028 240.426,77.172 239.862,77.172 Z M249.42,78.288 C250.02,78.288 250.572,78.153 251.076,77.883 C251.58,77.613 252.006,77.238 252.354,76.758 L252.354,76.758 L252.354,78 L253.578,78 L253.578,69.576 L252.354,69.576 L252.354,70.836 C252.006,70.344 251.577,69.963 251.067,69.693 C250.557,69.423 249.996,69.288 249.384,69.288 C248.58,69.288 247.863,69.48 247.233,69.864 C246.603,70.248 246.111,70.779 245.757,71.457 C245.403,72.135 245.226,72.906 245.226,73.77 C245.226,74.646 245.406,75.426 245.766,76.11 C246.126,76.794 246.624,77.328 247.26,77.712 C247.896,78.096 248.616,78.288 249.42,78.288 Z M249.384,77.172 C248.82,77.172 248.316,77.028 247.872,76.74 C247.428,76.452 247.08,76.05 246.828,75.534 C246.576,75.018 246.45,74.43 246.45,73.77 C246.45,73.122 246.576,72.543 246.828,72.033 C247.08,71.523 247.428,71.124 247.872,70.836 C248.316,70.548 248.82,70.404 249.384,70.404 C249.96,70.404 250.473,70.548 250.923,70.836 C251.373,71.124 251.724,71.526 251.976,72.042 C252.228,72.558 252.354,73.14 252.354,73.788 C252.354,74.436 252.228,75.018 251.976,75.534 C251.724,76.05 251.373,76.452 250.923,76.74 C250.473,77.028 249.96,77.172 249.384,77.172 Z M257.07,78 L257.07,73.788 C257.07,72.756 257.286,71.934 257.718,71.322 C258.15,70.71 258.798,70.404 259.662,70.404 C261.15,70.404 261.894,71.238 261.894,72.906 L261.894,72.906 L261.894,78 L263.118,78 L263.118,72.366 C263.118,71.73 262.971,71.178 262.677,70.71 C262.383,70.242 261.987,69.888 261.489,69.648 C260.991,69.408 260.448,69.288 259.86,69.288 C259.236,69.288 258.687,69.435 258.213,69.729 C257.739,70.023 257.358,70.44 257.07,70.98 L257.07,70.98 L257.07,69.576 L255.846,69.576 L255.846,78 L257.07,78 Z M267.906,81.6 L272.46,69.576 L271.308,69.576 L268.626,76.56 L265.836,69.576 L264.558,69.576 L268.014,78.162 L266.682,81.6 L267.906,81.6 Z" id="LeadingPaperCompany" fill="#25272B" fill-rule="nonzero"></path><g id="icon"><path d="M43,13 L43,71.3983858 C38.3790635,74.2440844 32.8778553,76.5884121 26.7992751,78.1270003 C21.7803538,79.3991429 16.8481854,80 12.2380317,80 C7.79305157,80 3.64754024,79.4419909 0,78.3840884 L0,78.3840884 L0,19.9861951 C0.00196051612,19.9861951 0.00539141932,19.9876727 0.00735193544,19.9876727 C1.36549948,20.3806923 2.79226508,20.7052536 4.27931655,20.9574166 C5.65510874,21.1913569 7.08187434,21.3632414 8.55128117,21.4691302 C9.75307755,21.5587662 10.9833014,21.6035843 12.2380317,21.6035843 C16.8501459,21.6035843 21.7803538,21.0007571 26.7992751,19.7300921 C32.8778553,18.1895339 38.3790635,15.8471762 43,13 L43,13 Z M34.4550905,26.4065011 C34.0938793,26.529486 33.7308158,26.6498652 33.3659429,26.7676035 L34.455,26.767 Z" id="Combined-Shape" fill="#FF7575"></path><path d="M59,0 L59,64.4997096 C53.8417453,67.6427201 47.7008617,70.2319776 40.9154698,71.9313138 C35.3129531,73.3363668 29.8072767,74 24.6610587,74 C19.6992204,74 15.0716728,73.3836914 11,72.2152618 L11,72.2152618 L11,7.71609612 C11.0021885,7.71609612 11.0060183,7.717728 11.0082068,7.717728 C12.5242785,8.15180941 14.1169471,8.51028014 15.7769115,8.78878851 C17.3126795,9.0471703 18.9053481,9.23701292 20.5456162,9.35396467 C21.8871563,9.45296569 23.2604295,9.5024662 24.6610587,9.5024662 C29.8094652,9.5024662 35.3129531,8.83665714 40.9154698,7.43323606 C47.7008617,5.73172399 53.8417453,3.14464235 59,0 L59,0 Z" id="Combined-Shape" fill="#644DFD"></path></g></g></g></g></svg>