<svg xmlns="http://www.w3.org/2000/svg" xmlns:xlink="http://www.w3.org/1999/xlink" width="327px" height="75px" viewBox="0 0 327 75"><title>9</title><g id="Page-1" stroke="none" stroke-width="1" fill="none" fill-rule="evenodd"><g id="2" transform="translate(-19.000000, -19.000000)"><g id="9" transform="translate(19.000000, -11.000000)"><path d="M114,78.825 C123.375,78.825 129.6,74.475 129.6,66.975 C129.6,59.448 123.4146,57.0924 117.476616,55.320864 L116.792928,55.118787 C111.56535,53.5854 106.725,52.371 106.725,48.3 C106.725,45.075 109.35,43.05 113.925,43.05 C117.9,43.05 120.75,44.7 122.025,48.225 L128.1,45.825 C126.375,40.575 121.2,37.65 114,37.65 C105.3,37.65 99.675,41.85 99.675,48.675 C99.675,62.25 122.4,57.975 122.4,67.5 C122.4,71.175 119.175,73.275 114.225,73.275 C108.75,73.275 105.075,70.875 103.8,66.825 L97.725,69.225 C99.825,75.525 105.825,78.825 114,78.825 Z M172.4,91.425 L172.4,38.475 L166.475,38.475 L166.475,45.825 C163.325,40.725 158.075,37.65 151.475,37.65 C140.225,37.65 132.2,46.5 132.2,58.275 C132.2,70.05 140.45,78.825 151.625,78.825 C157.85,78.825 162.875,76.05 166.025,71.475 L166.025,91.425 L172.4,91.425 Z M152.375,73.2 C144.425,73.2 138.5,66.825 138.5,58.275 C138.5,49.65 144.425,43.275 152.375,43.275 C160.55,43.275 166.25,49.5 166.25,58.275 C166.25,67.05 160.625,73.2 152.375,73.2 Z M195.775,78.825 C201.625,78.825 206.35,76.05 208.975,72.375 L208.975,78 L215.05,78 L215.05,38.475 L208.675,38.475 L208.675,63.3 C208.6,68.325 204.1,73.125 197.425,73.125 C190.675,73.2 186.4,68.775 186.4,62.1 L186.4,38.475 L180.025,38.475 L180.025,62.85 C180.025,72.225 185.65,78.825 195.775,78.825 Z M240.15,78.825 C246.825,78.825 252,75.675 255,70.425 L255,78 L260.925,78 L260.925,38.475 L255,38.475 L255,46.125 C252,41.025 246.825,38.025 240.15,38.025 C228.975,38.025 220.725,46.5 220.725,58.2 C220.725,70.05 228.9,78.825 240.15,78.825 Z M240.9,73.2 C232.95,73.2 227.025,66.825 227.025,58.2 C227.025,49.725 232.95,43.275 240.9,43.275 C249.15,43.275 254.775,49.425 254.775,58.2 C254.775,67.05 249.075,73.2 240.9,73.2 Z M275.45,78 L275.45,54.15 C275.45,48.525 280.475,43.65 287.675,43.575 L287.675,37.65 C282.125,37.65 277.625,40.575 275.075,44.25 L275.075,38.475 L269.075,38.475 L269.075,78 L275.45,78 Z M307.525,78.9 C316.9,78.9 322.375,74.85 325.3,69.225 L319.75,65.85 C317.8,70.425 314.2,72.9 307.75,72.9 C300.475,72.9 294.7,67.95 293.575,60.6 L326.425,60.6 C326.5,59.85 326.575,58.5 326.575,57.375 C326.575,46.95 319,37.575 307.075,37.575 C295.9,37.575 287.125,46.8 287.125,58.275 C287.125,70.05 295.375,78.9 307.525,78.9 Z M320.05,55.05 L293.65,55.05 C294.85,47.55 300.625,43.125 307.3,43.125 C313.9,43.125 319.075,47.625 320.05,55.05 Z" id="square" fill="#2D313C" fill-rule="nonzero"></path><path d="M189.40625,102.140625 C189.611328,102.140625 189.828125,102.127441 190.056641,102.101074 C190.285156,102.074707 190.53418,102.035156 190.803711,101.982422 L190.803711,101.982422 L190.803711,101.296875 L190.645508,101.296875 C189.901367,101.296875 189.371094,101.20752 189.054688,101.028809 C188.738281,100.850098 188.489258,100.514648 188.307617,100.022461 C188.225586,99.8173828 188.114258,99.402832 187.973633,98.7788086 C187.833008,98.1547852 187.663086,97.6816406 187.463867,97.359375 C187.288086,97.0664062 187.047852,96.8217773 186.743164,96.6254883 C186.438477,96.4291992 186.060547,96.2695312 185.609375,96.1464844 C186.576172,95.9355469 187.302734,95.5795898 187.789062,95.0786133 C188.275391,94.5776367 188.518555,93.9375 188.518555,93.1582031 C188.518555,92.0625 188.164062,91.2495117 187.455078,90.7192383 C186.746094,90.1889648 185.65625,89.9238281 184.185547,89.9238281 L184.185547,89.9238281 L179.597656,89.9238281 L179.597656,90.6445312 L180.617188,90.75 L180.924805,91.0048828 L180.924805,100.918945 L180.617188,101.173828 L179.597656,101.261719 L179.597656,102 L183.87793,102 L183.87793,101.261719 L182.849609,101.173828 L182.541992,100.918945 L182.541992,96.6386719 L182.603516,96.6298828 C182.990234,96.6123047 183.271484,96.6035156 183.447266,96.6035156 C184.273438,96.6035156 184.890137,96.7441406 185.297363,97.0253906 C185.70459,97.3066406 186.02832,97.8134766 186.268555,98.5458984 C186.333008,98.7392578 186.417969,99.0322266 186.523438,99.4248047 C186.804688,100.514648 187.15918,101.24707 187.586914,101.62207 C187.791992,101.797852 188.04248,101.928223 188.338379,102.013184 C188.634277,102.098145 188.990234,102.140625 189.40625,102.140625 Z M183.535156,95.7861328 C183.382812,95.7861328 183.224609,95.784668 183.060547,95.7817383 C182.896484,95.7788086 182.723633,95.7744141 182.541992,95.7685547 L182.541992,95.7685547 L182.541992,90.75 L183.412109,90.75 C184.578125,90.75 185.421875,90.9521484 185.943359,91.3564453 C186.464844,91.7607422 186.725586,92.4111328 186.725586,93.3076172 C186.725586,94.1748047 186.472168,94.8046875 185.965332,95.1972656 C185.458496,95.5898438 184.648438,95.7861328 183.535156,95.7861328 Z M194.062109,102.158203 C194.642188,102.158203 195.219336,102.067383 195.793555,101.885742 C196.367773,101.704102 196.921484,101.4375 197.454688,101.085938 L197.454688,101.085938 L197.454688,100.092773 C196.915625,100.450195 196.416113,100.713867 195.956152,100.883789 C195.496191,101.053711 195.052344,101.138672 194.624609,101.138672 C193.698828,101.138672 192.963477,100.809082 192.418555,100.149902 C191.873633,99.4907227 191.601172,98.5957031 191.601172,97.4648438 L191.601172,97.4648438 L191.601172,97.2626953 L197.42832,97.2626953 C197.440039,97.1923828 197.447363,97.1191406 197.450293,97.0429688 C197.453223,96.9667969 197.454688,96.8554688 197.454688,96.7089844 C197.454688,95.6132812 197.163184,94.7475586 196.580176,94.1118164 C195.997168,93.4760742 195.207617,93.1582031 194.211523,93.1582031 C192.992773,93.1582031 191.995215,93.5844727 191.218848,94.4370117 C190.44248,95.2895508 190.054297,96.3896484 190.054297,97.7373047 C190.054297,99.0498047 190.424902,100.114746 191.166113,100.932129 C191.907324,101.749512 192.872656,102.158203 194.062109,102.158203 Z M195.846289,96.5068359 L191.689063,96.5068359 C191.741797,95.7744141 191.986426,95.1694336 192.422949,94.6918945 C192.859473,94.2143555 193.376563,93.9755859 193.974219,93.9755859 C194.583594,93.9755859 195.047949,94.1689453 195.367285,94.5556641 C195.686621,94.9423828 195.846289,95.4990234 195.846289,96.2255859 L195.846289,96.2255859 L195.846289,96.5068359 Z M200.686719,102.123047 C201.108594,102.123047 201.56123,102.027832 202.044629,101.837402 C202.528027,101.646973 203.059766,101.352539 203.639844,100.954102 L203.639844,100.954102 L203.877148,102 L206.408398,102 L206.408398,101.349609 L205.45918,101.261719 L205.151563,100.97168 L205.151563,95.7509766 C205.151563,94.8427734 204.937695,94.1835938 204.509961,93.7734375 C204.082227,93.3632812 203.39668,93.1582031 202.45332,93.1582031 C201.381055,93.1582031 200.506543,93.3515625 199.829785,93.7382812 C199.153027,94.125 198.814648,94.6113281 198.814648,95.1972656 C198.814648,95.4082031 198.854199,95.5532227 198.933301,95.6323242 C199.012402,95.7114258 199.160352,95.7509766 199.377148,95.7509766 L199.377148,95.7509766 L200.616406,95.7509766 L200.616406,94.2392578 C200.856641,94.1455078 201.088086,94.0751953 201.310742,94.0283203 C201.533398,93.9814453 201.758984,93.9580078 201.9875,93.9580078 C202.596875,93.9580078 203.024609,94.1044922 203.270703,94.3974609 C203.516797,94.6904297 203.639844,95.2148438 203.639844,95.9707031 L203.639844,95.9707031 L203.639844,96.5419922 C201.395703,97.0810547 199.958691,97.5703125 199.328809,98.0097656 C198.698926,98.4492188 198.383984,99.0527344 198.383984,99.8203125 C198.383984,100.511719 198.593457,101.068359 199.012402,101.490234 C199.431348,101.912109 199.989453,102.123047 200.686719,102.123047 Z M201.407422,101.15625 C200.967969,101.15625 200.617871,101.022949 200.357129,100.756348 C200.096387,100.489746 199.966016,100.130859 199.966016,99.6796875 C199.966016,99.1171875 200.201855,98.6630859 200.673535,98.3173828 C201.145215,97.9716797 202.133984,97.5908203 203.639844,97.1748047 L203.639844,97.1748047 L203.639844,100.347656 C203.165234,100.617188 202.744824,100.819336 202.378613,100.954102 C202.012402,101.088867 201.688672,101.15625 201.407422,101.15625 Z M210.870898,102 L210.870898,101.349609 L209.842578,101.261719 L209.517383,100.97168 L209.517383,88.7548828 L208.831836,88.7548828 L206.63457,89.3964844 L206.63457,89.9589844 L208.023242,89.9589844 L208.023242,100.97168 L207.715625,101.261719 L206.652148,101.349609 L206.652148,102 L210.870898,102 Z M224.893555,102 L224.893555,99.0644531 L223.961914,99.0644531 L223.654297,100.883789 L223.399414,101.173828 L218.574219,101.173828 L218.574219,96.1289062 L221.527344,96.1289062 L221.782227,96.4013672 L221.958008,97.7021484 L222.810547,97.7021484 L222.810547,93.7382812 L221.958008,93.7382812 L221.782227,95.0478516 L221.527344,95.3027344 L218.574219,95.3027344 L218.574219,90.75 L222.740234,90.75 L222.986328,91.0224609 L223.241211,92.5517578 L224.251953,92.5517578 L224.251953,89.9238281 L215.629883,89.9238281 L215.629883,90.6445312 L216.649414,90.75 L216.957031,91.0048828 L216.957031,100.918945 L216.649414,101.173828 L215.629883,101.261719 L215.629883,102 L224.893555,102 Z M227.89707,102.158203 C228.951758,102.158203 229.776465,101.919434 230.371191,101.441895 C230.965918,100.964355 231.263281,100.303711 231.263281,99.4599609 C231.263281,99.1376953 231.204688,98.8432617 231.0875,98.5766602 C230.970313,98.3100586 230.800391,98.0888672 230.577734,97.9130859 C230.273047,97.6611328 229.780859,97.3798828 229.101172,97.0693359 C228.907813,96.9814453 228.764258,96.9140625 228.670508,96.8671875 C228.072852,96.5800781 227.668555,96.3193359 227.457617,96.0849609 C227.24668,95.8505859 227.141211,95.5664062 227.141211,95.2324219 C227.141211,94.8222656 227.273047,94.5029297 227.536719,94.2744141 C227.800391,94.0458984 228.166602,93.9316406 228.635352,93.9316406 C228.852148,93.9316406 229.068945,93.9638672 229.285742,94.0283203 C229.502539,94.0927734 229.731055,94.1894531 229.971289,94.3183594 L229.971289,94.3183594 L230.111914,95.5927734 L230.999609,95.5927734 L230.999609,93.5537109 C230.694922,93.4248047 230.368262,93.3266602 230.019629,93.2592773 C229.670996,93.1918945 229.294531,93.1582031 228.890234,93.1582031 C227.876563,93.1582031 227.091406,93.3779297 226.534766,93.8173828 C225.978125,94.2568359 225.699805,94.8779297 225.699805,95.6806641 C225.699805,96.2080078 225.862402,96.6503906 226.187598,97.0078125 C226.512793,97.3652344 227.126563,97.7460938 228.028906,98.1503906 C228.825781,98.5136719 229.329688,98.8139648 229.540625,99.0512695 C229.751563,99.2885742 229.857031,99.5888672 229.857031,99.9521484 C229.857031,100.385742 229.703223,100.73584 229.395605,101.002441 C229.087988,101.269043 228.679297,101.402344 228.169531,101.402344 C227.911719,101.402344 227.655371,101.367188 227.400488,101.296875 C227.145605,101.226562 226.892188,101.118164 226.640234,100.97168 L226.640234,100.97168 L226.420508,99.4423828 L225.55918,99.4423828 L225.55918,101.780273 C225.893164,101.90918 226.25791,102.004395 226.653418,102.065918 C227.048926,102.127441 227.463477,102.158203 227.89707,102.158203 Z M234.855664,102.052734 C235.224805,102.052734 235.608594,102.019043 236.007031,101.95166 C236.405469,101.884277 236.809766,101.786133 237.219922,101.657227 L237.219922,101.657227 L237.219922,100.989258 C236.997266,101.041992 236.781934,101.080078 236.573926,101.103516 C236.365918,101.126953 236.165234,101.138672 235.971875,101.138672 C235.409375,101.138672 235.019727,101.005371 234.80293,100.73877 C234.586133,100.472168 234.477734,99.9492188 234.477734,99.1699219 L234.477734,99.1699219 L234.477734,94.4238281 L237.219922,94.4238281 L237.219922,93.5800781 L234.477734,93.5800781 L234.477734,91.6640625 L233.809766,91.6640625 L233.036328,93.3427734 L231.849805,93.8613281 L231.849805,94.4238281 L232.983594,94.4238281 L232.983594,100.233398 C232.983594,100.924805 233.122754,101.400879 233.401074,101.661621 C233.679395,101.922363 234.164258,102.052734 234.855664,102.052734 Z M239.871875,102.123047 C240.29375,102.123047 240.746387,102.027832 241.229785,101.837402 C241.713184,101.646973 242.244922,101.352539 242.825,100.954102 L242.825,100.954102 L243.062305,102 L245.593555,102 L245.593555,101.349609 L244.644336,101.261719 L244.336719,100.97168 L244.336719,95.7509766 C244.336719,94.8427734 244.122852,94.1835938 243.695117,93.7734375 C243.267383,93.3632812 242.581836,93.1582031 241.638477,93.1582031 C240.566211,93.1582031 239.691699,93.3515625 239.014941,93.7382812 C238.338184,94.125 237.999805,94.6113281 237.999805,95.1972656 C237.999805,95.4082031 238.039355,95.5532227 238.118457,95.6323242 C238.197559,95.7114258 238.345508,95.7509766 238.562305,95.7509766 L238.562305,95.7509766 L239.801562,95.7509766 L239.801562,94.2392578 C240.041797,94.1455078 240.273242,94.0751953 240.495898,94.0283203 C240.718555,93.9814453 240.944141,93.9580078 241.172656,93.9580078 C241.782031,93.9580078 242.209766,94.1044922 242.455859,94.3974609 C242.701953,94.6904297 242.825,95.2148438 242.825,95.9707031 L242.825,95.9707031 L242.825,96.5419922 C240.580859,97.0810547 239.143848,97.5703125 238.513965,98.0097656 C237.884082,98.4492188 237.569141,99.0527344 237.569141,99.8203125 C237.569141,100.511719 237.778613,101.068359 238.197559,101.490234 C238.616504,101.912109 239.174609,102.123047 239.871875,102.123047 Z M240.592578,101.15625 C240.153125,101.15625 239.803027,101.022949 239.542285,100.756348 C239.281543,100.489746 239.151172,100.130859 239.151172,99.6796875 C239.151172,99.1171875 239.387012,98.6630859 239.858691,98.3173828 C240.330371,97.9716797 241.319141,97.5908203 242.825,97.1748047 L242.825,97.1748047 L242.825,100.347656 C242.350391,100.617188 241.92998,100.819336 241.56377,100.954102 C241.197559,101.088867 240.873828,101.15625 240.592578,101.15625 Z M248.79043,102.052734 C249.15957,102.052734 249.543359,102.019043 249.941797,101.95166 C250.340234,101.884277 250.744531,101.786133 251.154687,101.657227 L251.154687,101.657227 L251.154687,100.989258 C250.932031,101.041992 250.716699,101.080078 250.508691,101.103516 C250.300684,101.126953 250.1,101.138672 249.906641,101.138672 C249.344141,101.138672 248.954492,101.005371 248.737695,100.73877 C248.520898,100.472168 248.4125,99.9492188 248.4125,99.1699219 L248.4125,99.1699219 L248.4125,94.4238281 L251.154687,94.4238281 L251.154687,93.5800781 L248.4125,93.5800781 L248.4125,91.6640625 L247.744531,91.6640625 L246.971094,93.3427734 L245.78457,93.8613281 L245.78457,94.4238281 L246.918359,94.4238281 L246.918359,100.233398 C246.918359,100.924805 247.05752,101.400879 247.33584,101.661621 C247.61416,101.922363 248.099023,102.052734 248.79043,102.052734 Z M255.423828,102.158203 C256.003906,102.158203 256.581055,102.067383 257.155273,101.885742 C257.729492,101.704102 258.283203,101.4375 258.816406,101.085938 L258.816406,101.085938 L258.816406,100.092773 C258.277344,100.450195 257.777832,100.713867 257.317871,100.883789 C256.85791,101.053711 256.414062,101.138672 255.986328,101.138672 C255.060547,101.138672 254.325195,100.809082 253.780273,100.149902 C253.235352,99.4907227 252.962891,98.5957031 252.962891,97.4648438 L252.962891,97.4648438 L252.962891,97.2626953 L258.790039,97.2626953 C258.801758,97.1923828 258.809082,97.1191406 258.812012,97.0429688 C258.814941,96.9667969 258.816406,96.8554688 258.816406,96.7089844 C258.816406,95.6132812 258.524902,94.7475586 257.941895,94.1118164 C257.358887,93.4760742 256.569336,93.1582031 255.573242,93.1582031 C254.354492,93.1582031 253.356934,93.5844727 252.580566,94.4370117 C251.804199,95.2895508 251.416016,96.3896484 251.416016,97.7373047 C251.416016,99.0498047 251.786621,100.114746 252.527832,100.932129 C253.269043,101.749512 254.234375,102.158203 255.423828,102.158203 Z M257.208008,96.5068359 L253.050781,96.5068359 C253.103516,95.7744141 253.348145,95.1694336 253.784668,94.6918945 C254.221191,94.2143555 254.738281,93.9755859 255.335938,93.9755859 C255.945312,93.9755859 256.409668,94.1689453 256.729004,94.5556641 C257.04834,94.9423828 257.208008,95.4990234 257.208008,96.2255859 L257.208008,96.2255859 L257.208008,96.5068359 Z M267.715039,102.219727 C269.121289,102.219727 270.249219,101.887207 271.098828,101.222168 C271.948438,100.557129 272.373242,99.6826172 272.373242,98.5986328 C272.373242,98.2060547 272.307324,97.8427734 272.175488,97.5087891 C272.043652,97.1748047 271.845898,96.8789062 271.582227,96.6210938 C271.119336,96.1640625 270.363477,95.7304688 269.314648,95.3203125 C269.11543,95.2441406 268.966016,95.1855469 268.866406,95.1445312 C267.8,94.6933594 267.112988,94.3081055 266.805371,93.9887695 C266.497754,93.6694336 266.343945,93.2666016 266.343945,92.7802734 C266.343945,92.1123047 266.563672,91.5834961 267.003125,91.1938477 C267.442578,90.8041992 268.037305,90.609375 268.787305,90.609375 C269.103711,90.609375 269.39668,90.6401367 269.666211,90.7016602 C269.935742,90.7631836 270.184766,90.8583984 270.413281,90.9873047 L270.413281,90.9873047 L270.676953,91.2861328 L270.949414,93 L271.889844,93 L271.889844,90.2138672 C271.3625,90.0439453 270.84541,89.9165039 270.338574,89.831543 C269.831738,89.746582 269.326367,89.7041016 268.822461,89.7041016 C267.568555,89.7041016 266.562207,90.0219727 265.803418,90.6577148 C265.044629,91.293457 264.665234,92.1269531 264.665234,93.1582031 C264.665234,93.890625 264.864453,94.4868164 265.262891,94.9467773 C265.661328,95.4067383 266.475781,95.9033203 267.70625,96.4365234 C267.805859,96.4775391 267.949414,96.5390625 268.136914,96.6210938 C269.85957,97.3535156 270.720898,98.1796875 270.720898,99.0996094 C270.720898,99.7617188 270.47627,100.287598 269.987012,100.677246 C269.497754,101.066895 268.83418,101.261719 267.996289,101.261719 C267.597852,101.261719 267.228711,101.226562 266.888867,101.15625 C266.549023,101.085938 266.247266,100.983398 265.983594,100.848633 L265.983594,100.848633 L265.746289,100.541016 L265.535352,98.4755859 L264.471875,98.4755859 L264.471875,101.639648 C264.899609,101.827148 265.390332,101.970703 265.944043,102.070312 C266.497754,102.169922 267.088086,102.219727 267.715039,102.219727 Z M277.644336,102.158203 C278.863086,102.158203 279.866504,101.737793 280.65459,100.896973 C281.442676,100.056152 281.836719,98.9765625 281.836719,97.6582031 C281.836719,96.3398438 281.444141,95.2602539 280.658984,94.4194336 C279.873828,93.5786133 278.868945,93.1582031 277.644336,93.1582031 C276.413867,93.1582031 275.410449,93.5771484 274.634082,94.4150391 C273.857715,95.2529297 273.469531,96.3339844 273.469531,97.6582031 C273.469531,98.9824219 273.860645,100.063477 274.642871,100.901367 C275.425098,101.739258 276.425586,102.158203 277.644336,102.158203 Z M277.644336,101.384766 C276.900195,101.384766 276.299609,101.046387 275.842578,100.369629 C275.385547,99.6928711 275.157031,98.7890625 275.157031,97.6582031 C275.157031,96.5273438 275.384082,95.6235352 275.838184,94.9467773 C276.292285,94.2700195 276.894336,93.9316406 277.644336,93.9316406 C278.394336,93.9316406 278.999316,94.2714844 279.459277,94.9511719 C279.919238,95.6308594 280.149219,96.5332031 280.149219,97.6582031 C280.149219,98.7949219 279.920703,99.7001953 279.463672,100.374023 C279.006641,101.047852 278.400195,101.384766 277.644336,101.384766 Z M286.624414,102 L286.624414,101.349609 L285.596094,101.261719 L285.270898,100.97168 L285.270898,88.7548828 L284.585352,88.7548828 L282.388086,89.3964844 L282.388086,89.9589844 L283.776758,89.9589844 L283.776758,100.97168 L283.469141,101.261719 L282.405664,101.349609 L282.405664,102 L286.624414,102 Z M290.541992,102.175781 C290.969727,102.175781 291.422363,102.079102 291.899902,101.885742 C292.377441,101.692383 292.897461,101.393555 293.459961,100.989258 L293.459961,100.989258 L293.459961,102 L296.123047,102 L296.123047,101.349609 L295.279297,101.261719 L294.954102,100.97168 L294.954102,93.1582031 L294.268555,93.1582031 L292.176758,93.8261719 L292.176758,94.3886719 L293.459961,94.3886719 L293.459961,100.488281 C293.084961,100.669922 292.726074,100.804688 292.383301,100.892578 C292.040527,100.980469 291.702148,101.024414 291.368164,101.024414 C290.770508,101.024414 290.331055,100.870605 290.049805,100.562988 C289.768555,100.255371 289.62793,99.7734375 289.62793,99.1171875 L289.62793,99.1171875 L289.62793,93.1582031 L288.942383,93.1582031 L286.850586,93.8261719 L286.850586,94.3886719 L288.133789,94.3886719 L288.133789,99.4248047 C288.133789,100.31543 288.340332,100.996582 288.753418,101.468262 C289.166504,101.939941 289.762695,102.175781 290.541992,102.175781 Z M299.478125,102.052734 C299.847266,102.052734 300.231055,102.019043 300.629492,101.95166 C301.02793,101.884277 301.432227,101.786133 301.842383,101.657227 L301.842383,101.657227 L301.842383,100.989258 C301.619727,101.041992 301.404395,101.080078 301.196387,101.103516 C300.988379,101.126953 300.787695,101.138672 300.594336,101.138672 C300.031836,101.138672 299.642187,101.005371 299.425391,100.73877 C299.208594,100.472168 299.100195,99.9492188 299.100195,99.1699219 L299.100195,99.1699219 L299.100195,94.4238281 L301.842383,94.4238281 L301.842383,93.5800781 L299.100195,93.5800781 L299.100195,91.6640625 L298.432227,91.6640625 L297.658789,93.3427734 L296.472266,93.8613281 L296.472266,94.4238281 L297.606055,94.4238281 L297.606055,100.233398 C297.606055,100.924805 297.745215,101.400879 298.023535,101.661621 C298.301855,101.922363 298.786719,102.052734 299.478125,102.052734 Z M304.204297,91.3300781 C304.497266,91.3300781 304.744824,91.2304688 304.946973,91.03125 C305.149121,90.8320312 305.250195,90.5888672 305.250195,90.3017578 C305.250195,90.0146484 305.149121,89.7685547 304.946973,89.5634766 C304.744824,89.3583984 304.497266,89.2558594 304.204297,89.2558594 C303.917188,89.2558594 303.672559,89.3569336 303.47041,89.559082 C303.268262,89.7612305 303.167188,90.0087891 303.167188,90.3017578 C303.167188,90.5888672 303.268262,90.8320312 303.47041,91.03125 C303.672559,91.2304688 303.917188,91.3300781 304.204297,91.3300781 Z M306.111523,102 L306.111523,101.349609 L305.144727,101.261719 L304.837109,100.97168 L304.837109,93.2548828 L304.133984,93.2548828 L302.068555,93.8964844 L302.068555,94.4589844 L303.325391,94.4589844 L303.325391,100.97168 L303.017773,101.261719 L302.068555,101.349609 L302.068555,102 L306.111523,102 Z M310.714648,102.158203 C311.933398,102.158203 312.936816,101.737793 313.724902,100.896973 C314.512988,100.056152 314.907031,98.9765625 314.907031,97.6582031 C314.907031,96.3398438 314.514453,95.2602539 313.729297,94.4194336 C312.944141,93.5786133 311.939258,93.1582031 310.714648,93.1582031 C309.48418,93.1582031 308.480762,93.5771484 307.704395,94.4150391 C306.928027,95.2529297 306.539844,96.3339844 306.539844,97.6582031 C306.539844,98.9824219 306.930957,100.063477 307.713184,100.901367 C308.49541,101.739258 309.495898,102.158203 310.714648,102.158203 Z M310.714648,101.384766 C309.970508,101.384766 309.369922,101.046387 308.912891,100.369629 C308.455859,99.6928711 308.227344,98.7890625 308.227344,97.6582031 C308.227344,96.5273438 308.454395,95.6235352 308.908496,94.9467773 C309.362598,94.2700195 309.964648,93.9316406 310.714648,93.9316406 C311.464648,93.9316406 312.069629,94.2714844 312.52959,94.9511719 C312.989551,95.6308594 313.219531,96.5332031 313.219531,97.6582031 C313.219531,98.7949219 312.991016,99.7001953 312.533984,100.374023 C312.076953,101.047852 311.470508,101.384766 310.714648,101.384766 Z M319.457422,102 L319.457422,101.349609 L318.596094,101.261719 L318.288477,100.97168 L318.288477,94.9423828 C318.675195,94.7431641 319.035547,94.5952148 319.369531,94.4985352 C319.703516,94.4018555 320.014063,94.3535156 320.301172,94.3535156 C320.957422,94.3535156 321.424707,94.4941406 321.703027,94.7753906 C321.981348,95.0566406 322.120508,95.5341797 322.120508,96.2080078 L322.120508,96.2080078 L322.120508,100.97168 L321.812891,101.261719 L320.951563,101.349609 L320.951563,102 L324.889063,102 L324.889063,101.349609 L323.922266,101.261719 L323.614648,100.97168 L323.614648,95.9003906 C323.614648,95.0097656 323.406641,94.3300781 322.990625,93.8613281 C322.574609,93.3925781 321.974023,93.1582031 321.188867,93.1582031 C320.854883,93.1582031 320.468164,93.2387695 320.028711,93.3999023 C319.589258,93.5610352 319.00918,93.8408203 318.288477,94.2392578 L318.288477,94.2392578 L318.288477,93.2548828 L317.60293,93.2548828 L315.511133,93.8964844 L315.511133,94.4589844 L316.794336,94.4589844 L316.794336,100.97168 L316.486719,101.261719 L315.511133,101.349609 L315.511133,102 L319.457422,102 Z" id="RealEstateSolution" fill="#25272B" fill-rule="nonzero"></path><path d="M0,30 L75,30 L75,105 L0,105 L0,30 Z M55.819926,49.1793444 L19.1761531,49.1754235 L19.1761531,85.8226161 L19.164,85.834 L19.1643592,85.8366203 L55.8366203,85.8366203 L55.8336816,49.1663184 L55.832,49.166 L55.819926,49.1793444 Z" id="Icon" fill="#4C6BFF"></path></g></g></g></svg>