<svg width="65" height="19" viewBox="0 0 65 19" fill="none" xmlns="http://www.w3.org/2000/svg">
<path d="M4.8 9.48C4.8 5.928 7.344 4.32 9.72 4.32C12.072 4.32 14.616 5.928 14.616 9.48C14.616 13.032 12.072 14.616 9.72 14.616C7.344 14.616 4.8 13.032 4.8 9.48ZM0.864 9.504C0.864 14.88 4.92 18.36 9.72 18.36C14.496 18.36 18.552 14.88 18.552 9.504C18.552 4.104 14.496 0.623999 9.72 0.623999C4.92 0.623999 0.864 4.104 0.864 9.504ZM23.9119 18V11.136C23.9119 10.056 24.6079 9.072 25.8799 9.072C27.1999 9.072 27.7999 9.96 27.7999 11.088V18H31.3999V11.112C31.3999 10.056 32.0959 9.072 33.3919 9.072C34.6879 9.072 35.2879 9.96 35.2879 11.088V18H38.8159V10.272C38.8159 7.032 36.6559 5.712 34.3999 5.712C32.7919 5.712 31.6399 6.24 30.7039 7.584C30.1039 6.408 28.8799 5.712 27.1759 5.712C25.8799 5.712 24.3439 6.384 23.7439 7.44V6.072H20.2639V18H23.9119ZM43.9064 10.608C43.9784 9.72 44.7464 8.592 46.2824 8.592C48.0104 8.592 48.6344 9.696 48.6824 10.608H43.9064ZM48.9464 13.704C48.6104 14.64 47.8664 15.264 46.5464 15.264C45.1304 15.264 43.9064 14.304 43.8344 12.96H52.1384C52.1624 12.888 52.2104 12.336 52.2104 11.832C52.2104 7.992 49.9304 5.712 46.2344 5.712C43.1384 5.712 40.2824 8.16 40.2824 12C40.2824 16.008 43.2104 18.36 46.4984 18.36C49.5224 18.36 51.4184 16.632 51.9944 14.568L48.9464 13.704ZM52.296 18H56.304C56.952 17.016 57.84 15.6 58.488 14.64L60.696 18H64.968C63.6 16.08 62.04 13.824 60.696 11.904L64.824 6.072H60.744L58.656 9.336L56.52 6.072H52.224L56.4 12.048L52.296 18Z" fill="white"/>
</svg>
