<?xml version="1.0" standalone="no"?>
<!DOCTYPE svg PUBLIC "-//W3C//DTD SVG 20010904//EN"
 "http://www.w3.org/TR/2001/REC-SVG-20010904/DTD/svg10.dtd">
<svg version="1.0" xmlns="http://www.w3.org/2000/svg"
 width="315.000000pt" height="315.000000pt" viewBox="0 0 315.000000 315.000000"
 preserveAspectRatio="xMidYMid meet">
<metadata>
Created by potrace 1.14, written by Peter Selinger 2001-2017
</metadata>
<g transform="translate(0.000000,315.000000) scale(0.100000,-0.100000)"
fill="#000000" stroke="none">
<path d="M330 1995 c0 -11 -11 -15 -39 -15 -29 0 -44 -6 -54 -21 -9 -12 -18
-16 -21 -10 -9 14 -36 2 -36 -15 0 -13 -12 -18 -32 -15 -4 0 -4 -7 -1 -16 4
-10 2 -14 -5 -9 -6 3 -13 -3 -17 -14 -4 -11 -9 -18 -13 -16 -4 2 -13 -2 -20
-10 -9 -10 -9 -14 -1 -14 8 0 8 -4 -1 -15 -7 -8 -9 -15 -5 -15 4 0 -7 -12 -26
-27 -32 -26 -34 -31 -31 -80 2 -43 0 -53 -12 -53 -13 0 -16 -14 -16 -75 0 -58
3 -75 14 -75 17 0 27 -97 11 -104 -5 -3 0 -8 12 -11 13 -4 23 -14 23 -21 0 -8
7 -14 16 -14 12 0 15 -7 12 -25 -3 -14 -1 -25 6 -25 6 -1 25 -19 41 -40 17
-21 36 -39 43 -40 6 0 12 -7 12 -15 0 -9 6 -12 15 -8 9 3 25 -3 36 -13 12 -10
34 -18 54 -17 23 0 35 -4 35 -13 0 -11 25 -14 120 -14 105 0 120 2 120 17 0 9
3 14 6 10 3 -3 17 -2 29 3 16 6 25 5 28 -3 2 -7 11 -3 22 11 11 12 30 22 42
22 15 0 23 6 23 17 0 9 3 14 6 10 8 -8 33 16 27 26 -2 4 3 7 11 7 9 0 16 7 16
17 0 9 3 14 6 10 12 -12 30 18 26 42 -4 19 -2 23 11 18 9 -3 16 -3 16 1 -3 20
2 33 11 27 6 -3 10 -1 10 5 0 6 3 9 8 7 4 -3 6 26 5 63 -3 59 0 71 17 83 17
12 19 19 11 39 -7 18 -6 29 2 38 9 10 9 11 0 6 -7 -4 -13 -2 -13 4 0 6 -4 9
-9 6 -5 -3 -11 3 -14 14 -3 11 -2 20 1 20 4 0 5 23 3 51 -3 49 -26 89 -51 89
-5 0 -10 13 -10 29 0 21 -6 32 -20 36 -11 3 -19 12 -17 18 1 7 -4 11 -10 9 -7
-1 -13 5 -13 13 0 8 -7 15 -16 15 -8 0 -12 5 -9 10 3 6 -1 10 -9 10 -9 0 -16
4 -16 10 0 5 -7 7 -15 4 -8 -4 -17 1 -21 10 -4 11 -19 16 -50 16 -32 0 -44 4
-44 15 0 13 -20 15 -120 15 -100 0 -120 -2 -120 -15z m149 -168 c9 2 25 -5 34
-15 12 -13 26 -18 39 -14 14 3 19 1 14 -6 -3 -6 6 -13 25 -17 17 -4 33 -13 36
-21 3 -8 12 -14 20 -14 10 0 14 -7 10 -20 -3 -11 -1 -23 4 -26 6 -3 5 -12 -2
-20 -10 -12 -8 -16 9 -20 18 -5 21 -15 24 -79 2 -40 0 -71 -4 -68 -5 2 -8 -1
-8 -6 0 -6 -6 -10 -12 -9 -8 2 -12 -7 -10 -24 3 -25 -4 -32 -29 -30 -3 1 -3
-12 -1 -29 4 -27 2 -29 -27 -29 -20 0 -31 -5 -31 -14 0 -19 -25 -27 -39 -13
-9 9 -13 6 -17 -11 -6 -20 -13 -22 -64 -22 -51 0 -58 3 -63 22 -5 18 -8 19
-21 8 -12 -9 -16 -9 -16 -1 0 7 -4 10 -9 7 -5 -3 -12 4 -16 17 -3 12 -9 17
-11 11 -3 -7 -14 -10 -24 -7 -14 4 -20 14 -20 33 0 16 -7 30 -16 34 -9 4 -14
13 -10 21 3 9 -3 20 -14 27 -17 11 -20 24 -20 85 0 59 3 72 17 75 16 3 27 48
12 48 -4 0 -5 9 -2 20 3 11 9 17 14 14 5 -3 9 0 9 6 0 6 5 8 12 4 6 -4 8 -3 4
4 -3 6 3 17 14 25 11 7 17 17 13 20 -3 4 15 7 40 7 26 0 47 5 47 10 0 15 42
29 59 20 8 -4 21 -5 30 -3z"/>
<path d="M1301 1770 c-8 -4 -20 -6 -28 -3 -7 3 -13 -2 -13 -11 0 -10 -8 -16
-22 -16 -12 0 -32 -10 -45 -22 -13 -12 -23 -16 -23 -9 0 7 -5 9 -10 6 -6 -3
-13 1 -16 9 -9 23 -179 23 -188 1 -3 -8 0 -15 6 -15 7 0 7 -4 -1 -13 -8 -10
-7 -17 1 -25 9 -9 9 -12 -1 -12 -11 0 -11 -3 -1 -15 10 -12 10 -15 0 -15 -10
0 -10 -3 0 -15 9 -11 9 -15 1 -15 -7 0 -9 -5 -5 -12 11 -17 11 -58 1 -58 -4 0
-4 -8 0 -17 10 -21 9 -65 -1 -82 -4 -6 -2 -11 5 -11 8 0 9 -4 0 -13 -8 -10 -7
-17 1 -25 9 -9 9 -12 0 -12 -9 0 -10 -6 -5 -17 10 -21 9 -65 -1 -82 -4 -6 -3
-11 3 -11 6 0 7 -11 2 -27 -8 -33 -3 -66 9 -58 5 3 12 1 15 -5 5 -8 11 -7 21
1 8 6 14 7 14 2 0 -10 63 -8 79 2 5 3 11 0 13 -6 3 -8 10 -5 22 6 11 11 14 21
8 27 -6 6 -7 22 -2 39 5 18 5 29 -1 29 -6 0 -7 6 -3 12 11 17 12 48 3 48 -4 0
-4 14 1 30 6 20 5 30 -2 30 -6 0 -7 5 -2 13 11 14 11 37 1 54 -4 6 -3 14 3 18
6 4 8 11 5 16 -4 5 1 9 10 9 9 0 13 5 10 10 -3 6 -2 10 3 10 6 0 8 10 4 22 -4
17 -2 20 11 15 9 -3 16 -3 16 1 -3 19 2 33 10 27 5 -3 12 -1 16 5 4 6 13 7 23
1 18 -9 24 -11 44 -11 6 0 8 -3 5 -7 -4 -3 2 -13 13 -20 11 -8 18 -19 15 -24
-3 -5 0 -6 8 -3 14 5 32 -32 19 -40 -4 -2 -5 -63 -2 -135 3 -72 2 -131 -1
-131 -3 0 -4 -13 -1 -30 4 -25 7 -28 22 -20 12 6 20 6 22 0 2 -5 18 -6 41 -1
20 5 37 6 37 2 0 -4 10 -7 23 -5 12 1 26 3 30 3 5 1 7 26 5 56 -1 30 -1 55 2
55 10 0 5 95 -5 102 -6 5 -6 8 1 8 8 0 9 11 4 35 -4 19 -5 35 -1 35 3 0 4 23
2 51 -2 31 1 49 6 46 6 -4 16 5 23 18 10 19 16 22 27 14 10 -9 13 -8 13 0 0 7
5 9 13 4 16 -11 29 -11 49 -1 13 6 16 4 13 -12 -2 -11 -1 -19 3 -19 30 5 32
-4 34 -198 3 -170 5 -198 18 -194 35 8 60 8 60 0 0 -11 23 -7 32 6 5 6 8 5 8
-3 0 -10 5 -10 20 -2 14 8 20 8 20 0 0 -6 5 -8 11 -4 6 3 9 17 6 30 -2 13 -1
24 2 24 10 0 7 95 -4 102 -7 5 -7 8 0 8 6 0 10 25 10 55 0 30 -4 55 -10 55 -7
0 -7 3 0 8 6 4 10 30 10 57 0 28 -4 53 -10 57 -6 5 -6 8 1 8 7 0 9 11 6 25 -2
14 -11 25 -20 25 -8 0 -13 3 -9 6 9 9 -14 65 -24 58 -5 -3 -9 2 -9 10 0 20
-45 50 -64 43 -13 -5 -31 18 -28 35 1 4 -9 3 -23 -2 -16 -6 -25 -6 -25 1 0 6
-7 6 -20 -1 -12 -6 -20 -7 -20 -1 0 8 -21 8 -40 1 -3 -1 -8 -2 -12 -1 -7 1
-11 -13 -10 -30 1 -3 -12 -3 -29 -1 -21 3 -29 0 -29 -11 0 -9 -5 -19 -12 -23
-7 -5 -8 -3 -3 6 5 9 4 11 -3 6 -7 -4 -12 -14 -12 -22 0 -8 -7 -14 -15 -14 -8
0 -15 7 -15 16 0 8 -4 12 -10 9 -5 -3 -10 1 -10 10 0 18 -38 35 -59 27 -11 -4
-13 -1 -7 13 4 11 4 16 0 13 -4 -4 -15 -3 -25 3 -14 7 -19 6 -19 -2 0 -8 -4
-8 -13 -1 -7 6 -18 7 -26 2z"/>
<path d="M2191 1763 c-5 -11 -9 -22 -6 -24 2 -2 -18 -4 -43 -4 -39 0 -47 -3
-44 -17 2 -12 -2 -16 -13 -12 -10 4 -15 0 -15 -10 0 -9 -6 -16 -14 -16 -8 0
-18 -9 -21 -21 -4 -11 -9 -18 -12 -16 -10 11 -45 -36 -40 -54 3 -10 1 -21 -4
-24 -4 -3 -6 -12 -2 -20 3 -10 -1 -15 -12 -15 -14 0 -16 -8 -13 -45 2 -25 0
-45 -3 -45 -13 0 4 -53 23 -72 14 -14 16 -23 9 -37 -9 -16 1 -30 59 -90 62
-63 84 -77 113 -72 4 0 7 -6 7 -14 0 -12 18 -15 105 -15 83 0 105 3 105 14 0
18 35 27 49 13 8 -8 11 -8 11 1 0 21 23 39 44 34 16 -4 18 -1 14 21 -4 19 0
28 13 32 18 6 35 35 19 35 -6 0 -6 9 -1 23 11 28 -18 54 -38 34 -8 -8 -11 -8
-11 2 0 7 -5 9 -11 6 -5 -4 -19 1 -29 10 -13 11 -28 15 -43 11 -20 -5 -23 -11
-19 -31 4 -22 1 -25 -24 -26 -16 -1 -33 -1 -38 0 -5 1 -6 -5 -3 -13 3 -8 0
-16 -6 -18 -19 -7 -72 7 -70 18 1 5 -10 11 -24 12 -33 3 -45 11 -39 28 3 7 1
16 -4 19 -6 4 -6 14 0 26 6 11 15 17 21 14 5 -4 9 -2 9 3 0 5 20 6 45 2 26 -4
48 -3 55 4 6 6 10 6 10 1 0 -11 51 -12 68 -1 7 4 12 3 12 -1 0 -5 9 -9 20 -9
11 0 20 3 20 6 0 4 7 7 15 7 8 0 15 -4 15 -8 0 -9 26 -6 36 4 4 4 14 1 22 -6
30 -25 42 1 42 95 0 65 -3 80 -21 97 -13 12 -17 21 -10 26 6 3 9 11 5 16 -3 5
-10 7 -15 4 -5 -4 -9 -2 -9 3 0 12 -36 53 -42 47 -2 -3 -10 6 -18 19 -13 25
-50 42 -50 23 0 -8 -3 -8 -11 0 -6 6 -18 9 -27 5 -12 -4 -14 -1 -8 13 4 11 4
16 0 13 -4 -4 -15 -3 -25 3 -14 7 -19 6 -19 -2 0 -8 -4 -9 -13 0 -8 6 -17 8
-20 5 -10 -10 -51 -10 -58 0 -4 5 -12 0 -18 -11z m139 -179 c0 -7 9 -16 20
-19 11 -3 20 -14 20 -22 0 -9 -3 -13 -6 -10 -4 3 -14 2 -23 -3 -10 -5 -23 -5
-31 0 -8 5 -21 5 -31 -1 -11 -6 -20 -5 -24 1 -4 7 -13 7 -26 0 -10 -6 -19 -7
-19 -2 0 5 -12 7 -27 4 -16 -2 -25 -1 -21 3 4 4 3 15 -1 24 -6 10 -4 21 5 29
8 7 14 9 14 5 0 -5 9 -9 20 -9 13 0 20 7 20 19 0 15 5 18 25 15 14 -3 25 -1
25 4 0 5 14 1 30 -9 17 -9 30 -23 30 -29z"/>
<path d="M2770 1743 c0 -4 -50 -7 -111 -5 -103 3 -110 2 -107 -15 2 -10 10
-17 16 -15 7 1 12 -5 12 -13 0 -8 7 -15 15 -15 9 0 15 -10 15 -26 0 -16 11
-35 30 -51 17 -13 30 -33 30 -44 0 -20 33 -59 49 -59 5 0 13 -9 16 -20 4 -11
10 -18 15 -15 4 3 6 -4 3 -15 -3 -11 -12 -20 -19 -20 -8 0 -13 -6 -11 -12 1
-7 -4 -12 -10 -10 -13 2 -17 -9 -14 -40 2 -11 -5 -18 -14 -18 -9 0 -14 -4 -10
-9 3 -5 -3 -12 -14 -16 -20 -6 -37 -35 -21 -35 5 0 7 -7 4 -15 -4 -8 -11 -15
-18 -15 -6 0 -17 -9 -24 -20 -7 -12 -16 -19 -20 -16 -4 2 -7 -8 -7 -23 0 -26
3 -28 45 -30 24 -1 46 -4 49 -6 2 -3 10 0 18 6 7 6 13 7 13 2 0 -18 45 -8 57
12 7 11 12 17 13 13 0 -4 12 5 27 20 18 17 26 35 24 51 -1 14 1 21 7 17 6 -3
13 3 17 14 8 25 21 26 35 0 8 -14 8 -20 0 -20 -7 0 -6 -5 2 -14 7 -8 15 -12
17 -10 5 5 37 -39 32 -45 -1 -2 3 -8 11 -12 10 -7 10 -9 0 -9 -10 0 -10 -3 0
-13 12 -13 59 -14 79 -2 5 4 9 2 9 -3 0 -9 61 -7 88 3 6 2 12 0 12 -6 0 -6 5
-7 10 -4 6 3 10 19 10 35 0 21 -8 33 -30 47 -20 11 -30 25 -30 41 0 13 -7 30
-15 38 -8 9 -15 12 -15 8 0 -4 -7 1 -15 12 -8 10 -15 29 -15 42 0 13 -6 22
-16 22 -8 0 -13 4 -9 9 3 5 -4 12 -15 16 -11 3 -20 13 -20 22 0 10 6 13 16 9
8 -3 12 -2 9 3 -3 5 -1 12 4 16 5 3 8 14 6 25 -2 12 3 21 16 25 10 4 19 13 19
21 0 8 6 13 13 11 6 -1 11 4 9 12 -2 8 3 11 13 8 11 -5 15 0 15 18 0 14 0 28
1 33 0 4 14 15 30 25 21 14 29 27 29 48 l0 29 -105 0 -105 0 0 -30 c0 -20 -5
-30 -15 -30 -10 0 -15 -10 -15 -30 0 -19 -5 -30 -14 -30 -8 0 -16 -7 -20 -15
-9 -25 -26 -17 -26 13 0 17 -8 32 -20 40 -12 7 -18 17 -15 22 3 5 0 7 -8 4 -8
-3 -18 -1 -22 5 -3 6 -2 11 3 11 12 0 4 38 -9 46 -5 3 -9 2 -9 -3z"/>
</g>
</svg>
